<?xml version="1.0" encoding="UTF-8"?>
<svg width="347px" height="132px" viewBox="0 0 347 132" version="1.1" xmlns="http://www.w3.org/2000/svg" xmlns:xlink="http://www.w3.org/1999/xlink">
    <title>Group 40</title>
    <g id="Page-1" stroke="none" stroke-width="1" fill="none" fill-rule="evenodd">
        <g id="Artboard-Copy" transform="translate(-1, 0)">
            <g id="Group-40" transform="translate(1, 0)">
                <path d="M181.395,38.9787 C181.395,28.473 176.5,23.041 168.8,23.041 C161.159,23.041 156.265,28.473 156.265,38.9787 C156.265,49.4247 161.159,54.9157 168.8,54.9157 C176.5,54.9157 181.395,49.4247 181.395,38.9787 M187.961,38.9787 C187.961,52.8267 180.142,60.4077 168.8,60.4077 C157.519,60.4077 149.699,52.8267 149.699,38.9787 C149.699,25.07 157.519,17.55 168.8,17.55 C180.142,17.55 187.961,25.07 187.961,38.9787" id="Fill-1" fill="#000000"></path>
                <path d="M210.165,60.408 C200.198,60.408 193.751,54.378 193.751,43.932 L193.751,18.087 L200.018,18.087 L200.018,43.634 C200.018,50.977 203.838,54.916 210.165,54.916 C216.493,54.916 220.313,50.977 220.313,43.634 L220.313,18.087 L226.641,18.087 L226.641,43.932 C226.641,54.378 220.075,60.408 210.165,60.408" id="Fill-2" fill="#000000"></path>
                <path d="M258.396,30.801 C258.396,25.966 255.531,23.578 250.039,23.578 L239.534,23.578 L239.534,38.3819 L250.517,38.3819 C255.59,38.3819 258.396,35.7549 258.396,30.801 M266.156,59.8709 L259.888,59.8709 C258.993,58.4969 258.695,56.6469 258.695,52.8859 L258.695,49.7229 C258.695,45.0669 255.59,43.4549 251.77,43.4549 L239.534,43.4549 L239.534,59.8709 L233.266,59.8709 L233.266,18.087 L250.159,18.087 C260.247,18.087 264.843,23.041 264.843,30.204 C264.843,35.3969 262.216,38.6799 258.456,40.5309 C263.112,42.1419 264.962,44.8879 264.962,49.5439 L264.962,52.8859 C264.962,56.6469 265.26,58.4969 266.156,59.8709" id="Fill-3" fill="#000000"></path>
                <path d="M172.381,86.5039 C172.381,83.3999 170.889,81.3099 167.785,81.3099 L161.756,81.3099 L161.756,91.6379 L167.785,91.6379 C170.889,91.6379 172.381,89.5479 172.381,86.5039 M184.738,86.5039 C184.738,95.2189 179.783,101.6059 167.905,101.6059 L161.756,101.6059 L161.756,113.1859 L150.177,113.1859 L150.177,71.4019 L167.905,71.4019 C179.783,71.4019 184.738,77.7889 184.738,86.5039" id="Fill-4" fill="#000000"></path>
                <path d="M207.122,98.6806 L203.003,85.4896 L198.884,98.6806 L207.122,98.6806 Z M209.748,107.0976 L196.317,107.0976 L194.408,113.1856 L181.932,113.1856 L197.81,71.4016 L208.256,71.4016 L224.134,113.1856 L211.658,113.1856 L209.748,107.0976 Z" id="Fill-5" fill="#000000"></path>
                <path d="M251.592,85.4292 C251.592,82.6232 249.741,81.3702 246.936,81.3702 L239.773,81.3702 L239.773,90.0852 L246.22,90.0852 C250.816,90.0852 251.592,88.6532 251.592,85.4292 M265.381,113.1852 L253.8,113.1852 C252.726,110.9772 252.607,109.4252 252.607,106.2022 L252.607,103.6952 C252.607,101.5462 251.173,99.1582 247.831,99.1582 L239.773,99.1582 L239.773,113.1852 L228.193,113.1852 L228.193,71.4022 L247.174,71.4022 C258.874,71.4022 263.53,77.3712 263.53,84.3542 C263.53,89.7272 260.545,92.0552 258.337,93.9652 C262.754,96.5912 264.186,99.4562 264.186,103.2772 L264.186,106.2022 C264.186,109.4252 264.306,110.9772 265.381,113.1852" id="Fill-6" fill="#000000"></path>
                <polygon id="Fill-7" fill="#000000" points="309.911 113.1855 297.256 113.1855 286.99 98.4415 287.048 97.1885 281.259 104.2315 281.259 113.1855 269.679 113.1855 269.679 71.4015 281.259 71.4015 281.259 88.6535 295.166 71.4015 308.299 71.4015 293.018 89.9655"></polygon>
                <path d="M346.919,100.7101 C346.919,109.5451 338.324,113.7231 328.773,113.7231 C318.565,113.7231 311.164,108.7691 310.746,98.6211 L322.684,98.6211 C323.282,101.8451 324.834,104.2321 328.953,104.2321 C332.414,104.2321 334.921,102.4411 334.921,100.5911 C334.921,98.5621 333.966,97.6061 329.907,96.8901 L324.834,95.9951 C317.849,94.6821 311.701,92.1151 311.701,83.3401 C311.701,75.5801 318.507,70.8641 328.057,70.8641 C337.786,70.8641 345.128,75.1631 345.784,84.6531 L333.846,84.6531 C333.489,81.1911 331.161,80.2951 328.057,80.2951 C324.774,80.2951 323.52,82.6841 323.52,83.6981 C323.52,84.7731 323.639,86.3841 326.386,86.8621 L333.309,88.1751 C343.696,90.2641 346.919,93.8461 346.919,100.7101" id="Fill-8" fill="#000000"></path>
                <path d="M65.7734,128.1914 C31.3554,128.1914 3.3544,100.1904 3.3544,65.7724 C3.3544,31.355 31.3554,3.354 65.7734,3.354 C100.191,3.354 128.192,31.355 128.192,65.7724 C128.192,100.1904 100.191,128.1914 65.7734,128.1914" id="Fill-9" fill="#F9F1CC"></path>
                <path d="M65.773,0 C29.448,0 0,29.448 0,65.773 C0,102.098 29.448,131.546 65.773,131.546 C102.098,131.546 131.546,102.098 131.546,65.773 C131.546,29.448 102.098,0 65.773,0 M65.773,6.708 C98.341,6.708 124.837,33.205 124.837,65.773 C124.837,98.341 98.341,124.837 65.773,124.837 C33.205,124.837 6.709,98.341 6.709,65.773 C6.709,33.205 33.205,6.708 65.773,6.708" id="Fill-10" fill="#000000"></path>
                <path d="M99.2793,55.3523 C99.2793,55.3523 101.719,59.1233 100.499,66.1933 C99.2793,73.2623 108.888,85.2033 108.888,85.2033 L103.549,83.7893 C103.549,83.7893 105.075,90.8593 102.634,94.6293 C100.194,98.4003 96.6863,102.3283 96.6863,102.3283 C96.6863,102.3283 95.9243,98.5573 94.0933,97.4573 C94.0933,97.4573 94.5513,104.6843 89.2133,107.9843 C83.8753,111.2833 82.6553,111.2833 77.7743,111.9113 C72.8943,112.5403 65.2683,122.2813 65.2683,122.2813 L65.2783,122.2813 C65.2783,122.2813 57.6523,112.5403 52.7713,111.9113 C47.8913,111.2833 46.6713,111.2833 41.3333,107.9843 C35.9953,104.6843 36.4523,97.4573 36.4523,97.4573 C34.6223,98.5573 33.8593,102.3283 33.8593,102.3283 C33.8593,102.3283 30.3513,98.4003 27.9113,94.6293 C25.4713,90.8593 26.9963,83.7893 26.9963,83.7893 L21.6583,85.2033 C21.6583,85.2033 31.2673,73.2623 30.0463,66.1933 C28.8263,59.1233 31.2673,55.3523 31.2673,55.3523" id="Fill-11" fill="#66442A"></path>
                <path d="M65.2776,123.3466 C64.9166,123.3466 64.5816,123.1646 64.3846,122.8696 C62.2856,120.2056 56.2476,113.4336 52.6366,112.9686 L51.8546,112.8686 C47.6016,112.3296 46.0106,112.1276 40.7726,108.8906 C37.2216,106.6956 35.9926,103.0116 35.5786,100.4036 C35.2586,101.1526 35.0246,101.9506 34.9046,102.5396 C34.8246,102.9346 34.5266,103.2506 34.1376,103.3556 C33.7456,103.4626 33.3346,103.3366 33.0656,103.0376 C32.9206,102.8746 29.4736,99.0056 27.0166,95.2086 C25.1116,92.2636 25.3626,87.6906 25.6796,85.2396 L21.9316,86.2336 C21.4836,86.3486 21.0146,86.1696 20.7646,85.7836 C20.5146,85.3976 20.5396,84.8936 20.8276,84.5356 C20.9216,84.4196 30.1206,72.8876 28.9966,66.3746 C27.7206,58.9786 30.2636,54.9416 30.3716,54.7736 C30.6916,54.2786 31.3526,54.1366 31.8456,54.4576 C32.3406,54.7776 32.4806,55.4366 32.1616,55.9306 C32.1436,55.9606 29.9726,59.4996 31.0976,66.0116 C32.0456,71.5056 27.1456,79.4086 24.3366,83.3906 L26.7236,82.7586 C27.0796,82.6656 27.4636,82.7616 27.7326,83.0176 C28.0006,83.2736 28.1166,83.6506 28.0386,84.0136 C28.0246,84.0796 26.6376,90.6996 28.8066,94.0506 C30.2736,96.3206 32.1606,98.6736 33.3886,100.1416 C33.8656,98.8526 34.6676,97.2866 35.9036,96.5446 C36.2416,96.3416 36.6646,96.3416 37.0046,96.5476 C37.3426,96.7516 37.5396,97.1286 37.5156,97.5226 C37.5116,97.5896 37.1766,104.1626 41.8936,107.0776 C46.7366,110.0716 47.9856,110.2296 52.1226,110.7546 L52.9086,110.8546 C57.2486,111.4136 63.0506,117.9106 65.2726,120.5826 C67.4946,117.9106 73.2976,111.4136 77.6386,110.8546 L78.4246,110.7546 C82.5606,110.2296 83.8096,110.0716 88.6536,107.0776 C93.3696,104.1626 93.0336,97.5896 93.0306,97.5226 C93.0066,97.1286 93.2036,96.7516 93.5416,96.5476 C93.8816,96.3416 94.3046,96.3406 94.6426,96.5446 C95.8786,97.2866 96.6816,98.8526 97.1586,100.1416 C98.3856,98.6736 100.272,96.3206 101.74,94.0506 C103.909,90.6996 102.523,84.0796 102.509,84.0126 C102.431,83.6506 102.547,83.2736 102.815,83.0176 C103.085,82.7616 103.468,82.6656 103.824,82.7586 L106.21,83.3906 C103.401,79.4076 98.5006,71.5056 99.4486,66.0116 C100.573,59.4996 98.4026,55.9606 98.3806,55.9256 C98.0686,55.4296 98.2136,54.7726 98.7076,54.4566 C99.2026,54.1396 99.8546,54.2816 100.174,54.7736 C100.283,54.9416 102.825,58.9786 101.55,66.3746 C100.425,72.8946 109.625,84.4196 109.719,84.5346 C110.007,84.8936 110.033,85.3976 109.782,85.7836 C109.531,86.1696 109.06,86.3496 108.615,86.2336 L104.867,85.2396 C105.183,87.6906 105.435,92.2636 103.53,95.2086 C101.073,99.0056 97.6266,102.8746 97.4816,103.0376 C97.2146,103.3366 96.8016,103.4626 96.4086,103.3556 C96.0206,103.2506 95.7226,102.9346 95.6426,102.5406 C95.5226,101.9506 95.2876,101.1526 94.9686,100.4026 C94.5546,103.0106 93.3256,106.6956 89.7746,108.8906 C84.5356,112.1276 82.9456,112.3296 78.6926,112.8686 L77.9106,112.9686 C74.3086,113.4326 68.3066,120.1526 66.1866,122.8376 C65.9936,123.1516 65.6516,123.3466 65.2776,123.3466" id="Fill-12" fill="#000000"></path>
                <path d="M38.6428,67.3837 C37.8168,71.2897 38.0238,78.3167 41.1178,83.2017 C44.2108,88.0877 46.8908,82.6207 46.8908,82.6207 C46.8908,82.6207 47.6128,79.8287 47.0978,76.8047 C47.0978,76.8047 45.1388,74.3627 43.3858,74.3627 C43.3858,74.3627 43.9008,72.1527 45.5508,70.8727 C45.5508,70.8727 45.4478,64.1267 42.6638,64.1267 C39.8798,64.1267 38.9298,66.0257 38.6428,67.3837" id="Fill-13" fill="#FFFFFF"></path>
                <path d="M42.6642,65.1927 C41.0262,65.1927 40.0242,66.0037 39.6852,67.6037 L39.6852,67.6047 C38.9622,71.0227 38.9872,77.8447 42.0182,82.6317 C42.3842,83.2097 43.0962,84.1667 43.8012,84.1667 C43.8162,84.1667 43.8302,84.1657 43.8442,84.1657 C44.6482,84.1217 45.5392,82.8977 45.8832,82.2507 C45.9942,81.7567 46.4282,79.5947 46.0912,77.2637 C45.3702,76.4397 44.1682,75.4277 43.3862,75.4277 C43.0612,75.4277 42.7532,75.2797 42.5512,75.0247 C42.3492,74.7697 42.2742,74.4367 42.3482,74.1197 C42.3712,74.0237 42.8812,71.9007 44.4672,70.3997 C44.3492,68.0797 43.6622,65.1927 42.6642,65.1927 L42.6642,65.1927 Z M43.7922,86.2977 C42.4812,86.2977 41.2792,85.4487 40.2172,83.7717 C36.8452,78.4467 36.8052,70.9217 37.6012,67.1627 C38.1442,64.5947 40.0362,63.0617 42.6642,63.0617 C46.3122,63.0617 46.5962,69.5547 46.6162,70.8567 C46.6202,71.1917 46.4682,71.5097 46.2032,71.7147 C45.5192,72.2457 45.0662,73.0017 44.7882,73.6077 C46.4142,74.2987 47.7472,75.9107 47.9292,76.1387 C48.0422,76.2797 48.1182,76.4477 48.1482,76.6257 C48.6962,79.8377 47.9542,82.7647 47.9232,82.8877 C47.9052,82.9577 47.8792,83.0257 47.8482,83.0897 C47.6942,83.4047 46.2732,86.1677 43.9592,86.2937 C43.9032,86.2967 43.8472,86.2977 43.7922,86.2977 L43.7922,86.2977 Z" id="Fill-14" fill="#000000"></path>
                <path d="M82.4478,55.4511 C82.4478,55.4511 83.4768,64.8241 79.1298,71.1451 C74.7828,77.4671 72.9528,80.0531 72.2668,88.3861 L58.2798,88.3861 C57.5928,80.0531 55.7628,77.4671 51.4168,71.1451 C47.0698,64.8241 48.0988,55.4511 48.0988,55.4511 L82.4478,55.4511 Z" id="Fill-15" fill="#8A5D3C"></path>
                <path d="M59.2526,87.3208 L71.2936,87.3208 C72.0636,79.5398 74.0216,76.6918 78.1216,70.7308 L78.2526,70.5418 C81.5366,65.7648 81.5676,58.9898 81.4526,56.5168 L49.0936,56.5168 C48.9796,58.9898 49.0106,65.7648 52.2946,70.5418 L52.4236,70.7308 C56.5246,76.6918 58.4826,79.5398 59.2526,87.3208 M72.2666,89.4518 L58.2796,89.4518 C57.7246,89.4518 57.2626,89.0258 57.2176,88.4738 C56.5616,80.5068 54.8366,77.9988 50.6676,71.9388 L50.5386,71.7488 C46.0196,65.1768 46.9956,55.7338 47.0386,55.3348 C47.0986,54.7948 47.5556,54.3858 48.0986,54.3858 L82.4476,54.3858 C82.9906,54.3858 83.4466,54.7948 83.5066,55.3348 C83.5506,55.7338 84.5276,65.1768 80.0076,71.7488 L79.8786,71.9388 C75.7096,77.9988 73.9846,80.5068 73.3286,88.4738 C73.2836,89.0258 72.8216,89.4518 72.2666,89.4518" id="Fill-16" fill="#000000"></path>
                <path d="M65.7153,87.5336 L67.6983,87.4906 C67.6983,87.4906 73.9513,87.6626 76.8493,86.9746 C79.7463,86.2866 82.6443,87.4906 83.4073,90.5876 C84.1693,93.6846 75.0183,96.7816 70.9013,99.5346 C66.7833,102.2876 67.2403,102.9756 65.7153,102.9756 L64.8303,102.9756 C63.3053,102.9756 63.7633,102.2876 59.6453,99.5346 C55.5273,96.7816 46.3763,93.6846 47.1393,90.5876 C47.9013,87.4906 50.7993,86.2866 53.6973,86.9746 C56.5953,87.6626 62.8483,87.4906 62.8483,87.4906 L64.8303,87.5336 L65.7153,87.5336 Z" id="Fill-17" fill="#000000"></path>
                <path d="M52.1288,87.8536 C50.3758,87.8536 48.6988,88.7136 48.1738,90.8426 C47.8458,92.1716 52.5598,94.5546 55.3768,95.9776 C57.2028,96.9006 58.9278,97.7726 60.2388,98.6486 C62.1408,99.9206 63.0918,100.7606 63.7198,101.3156 C64.3918,101.9096 64.3918,101.9096 64.8318,101.9096 L65.7158,101.9096 C66.1538,101.9096 66.1538,101.9096 66.8258,101.3156 C67.4548,100.7606 68.4048,99.9216 70.3098,98.6486 C71.6198,97.7726 73.3448,96.9006 75.1698,95.9776 C77.9868,94.5536 82.6998,92.1716 82.3728,90.8426 C81.7148,88.1766 79.2528,87.5016 77.0948,88.0106 C74.0968,88.7236 67.9288,88.5636 67.6688,88.5566 L65.7388,88.5986 L65.7158,88.5986 L62.8248,88.5566 C62.6158,88.5636 56.4498,88.7236 53.4498,88.0106 C53.0168,87.9086 52.5708,87.8536 52.1288,87.8536 M65.7158,104.0406 L64.8318,104.0406 C63.5858,104.0406 63.1048,103.6156 62.3088,102.9126 C61.7228,102.3946 60.8378,101.6126 59.0528,100.4206 C57.8508,99.6166 56.1818,98.7726 54.4158,97.8796 C49.7638,95.5296 45.3718,93.3086 46.1048,90.3326 C46.9478,86.9076 50.2508,85.0576 53.9428,85.9376 C56.6698,86.5856 62.7568,86.4276 62.8188,86.4256 L65.7038,86.4686 L67.6748,86.4256 C67.7898,86.4276 73.8768,86.5856 76.6018,85.9376 C80.3098,85.0606 83.5978,86.9076 84.4408,90.3326 C85.1748,93.3086 80.7818,95.5286 76.1318,97.8796 C74.3648,98.7726 72.6968,99.6166 71.4938,100.4206 C69.7078,101.6136 68.8238,102.3956 68.2378,102.9136 C67.4408,103.6166 66.9608,104.0406 65.7158,104.0406" id="Fill-18" fill="#000000"></path>
                <path d="M91.9033,67.3837 C92.7293,71.2897 92.5223,78.3167 89.4283,83.2017 C86.3353,88.0877 83.6553,82.6207 83.6553,82.6207 C83.6553,82.6207 82.9333,79.8287 83.4483,76.8047 C83.4483,76.8047 85.4073,74.3627 87.1603,74.3627 C87.1603,74.3627 86.6453,72.1527 84.9953,70.8727 C84.9953,70.8727 85.0983,64.1267 87.8823,64.1267 C90.6663,64.1267 91.6163,66.0257 91.9033,67.3837" id="Fill-19" fill="#FFFFFF"></path>
                <path d="M84.6613,82.2489 C85.0173,82.9149 85.8983,84.1229 86.7043,84.1649 C87.4403,84.2019 88.1563,83.2199 88.5293,82.6319 C91.5593,77.8459 91.5833,71.0229 90.8613,67.6049 C90.5213,66.0039 89.5193,65.1919 87.8823,65.1919 C86.8803,65.1919 86.1933,68.0799 86.0773,70.3989 C87.6653,71.8999 88.1753,74.0229 88.1983,74.1199 C88.2713,74.4369 88.1963,74.7699 87.9953,75.0249 C87.7933,75.2799 87.4853,75.4279 87.1603,75.4279 C86.3783,75.4279 85.1753,76.4399 84.4553,77.2639 C84.1193,79.5929 84.5503,81.7529 84.6613,82.2489 M86.7543,86.2979 C86.6993,86.2979 86.6433,86.2959 86.5873,86.2939 C84.2723,86.1679 82.8523,83.4049 82.6973,83.0899 C82.6663,83.0259 82.6413,82.9579 82.6223,82.8879 C82.5913,82.7639 81.8503,79.8379 82.3973,76.6259 C82.4273,76.4479 82.5043,76.2799 82.6173,76.1389 C82.7993,75.9109 84.1323,74.2979 85.7583,73.6079 C85.4813,73.0029 85.0283,72.2469 84.3433,71.7149 C84.0783,71.5099 83.9253,71.1919 83.9303,70.8569 C83.9503,69.5549 84.2333,63.0609 87.8823,63.0609 C90.5073,63.0609 92.4013,64.5939 92.9463,67.1619 L92.9463,67.1639 C93.8993,71.6679 93.4863,78.7869 90.3303,83.7719 C89.2683,85.4489 88.0653,86.2979 86.7543,86.2979" id="Fill-20" fill="#000000"></path>
                <path d="M109.926,47.3922 C109.926,55.9022 89.934,62.8002 65.273,62.8002 C40.612,62.8002 20.62,55.9022 20.62,47.3922 C20.62,38.8822 40.612,31.9842 65.273,31.9842 C89.934,31.9842 109.926,38.8822 109.926,47.3922" id="Fill-21" fill="#FFA240"></path>
                <path d="M65.273,33.0495 C39.2,33.0495 21.686,40.4655 21.686,47.3925 C21.686,54.3195 39.2,61.7355 65.273,61.7355 C91.346,61.7355 108.86,54.3195 108.86,47.3925 C108.86,40.4655 91.346,33.0495 65.273,33.0495 M65.273,63.8665 C42.8,63.8665 19.555,57.7035 19.555,47.3925 C19.555,37.0805 42.8,30.919 65.273,30.919 C87.746,30.919 110.991,37.0805 110.991,47.3925 C110.991,57.7035 87.746,63.8665 65.273,63.8665" id="Fill-22" fill="#000000"></path>
                <path d="M88.3909,38.9553 L85.1939,24.461 C85.1939,24.461 84.6339,22.518 82.3919,21.105 C80.1499,19.691 68.3789,12.801 68.3789,12.801 C68.3789,12.801 67.4449,11.917 65.2029,11.917 L65.8339,11.917 C63.5919,11.917 62.6579,12.801 62.6579,12.801 C62.6579,12.801 50.8869,19.691 48.6449,21.105 C46.4029,22.518 45.8429,24.461 45.8429,24.461 L42.6459,38.9553 C42.6459,38.9553 44.7539,50.8033 65.9159,50.8033 C85.3579,50.8033 88.3909,38.9553 88.3909,38.9553" id="Fill-23" fill="#FFA240"></path>
                <path d="M43.7365,38.9545 C44.1125,40.4445 47.2095,49.7375 65.9165,49.7375 C82.9655,49.7375 86.7555,40.5355 87.2905,38.9145 L84.1535,24.691 C84.1495,24.691 83.6565,23.162 81.8235,22.006 C79.6215,20.618 67.9585,13.789 67.8405,13.72 C67.7705,13.679 67.7065,13.63 67.6475,13.575 C67.6395,13.57 67.0115,13.055 65.5185,12.99 C64.0255,13.055 63.3965,13.571 63.3695,13.594 C63.3215,13.634 63.2485,13.69 63.1965,13.72 C63.0785,13.789 51.4155,20.618 49.2135,22.006 C47.3735,23.166 46.8835,24.7 46.8635,24.766 L43.7365,38.9545 Z M65.9165,51.8685 C44.1115,51.8685 41.6885,39.6615 41.5965,39.1415 C41.5725,39.0045 41.5745,38.8625 41.6055,38.7255 L44.8015,24.232 C44.8455,24.071 45.5205,21.814 48.0765,20.203 C50.2385,18.84 60.9445,12.569 62.0445,11.925 C62.3595,11.675 63.2595,11.08 64.8765,10.902 C64.9785,10.87 65.0885,10.852 65.2025,10.852 L65.8335,10.852 C65.9475,10.852 66.0575,10.87 66.1595,10.902 C67.7775,11.08 68.6785,11.675 68.9925,11.925 C70.0925,12.569 80.7975,18.84 82.9605,20.203 C85.5155,21.814 86.1905,24.071 86.2175,24.166 L89.4305,38.7255 C89.4675,38.8885 89.4635,39.0575 89.4225,39.2195 C89.2905,39.7355 85.9555,51.8685 65.9165,51.8685 L65.9165,51.8685 Z" id="Fill-24" fill="#000000"></path>
                <path d="M65.6269,45.9269 C54.7459,45.9269 45.5619,42.9849 42.6459,38.9549 C42.0169,39.8239 41.6779,40.7429 41.6779,41.6939 C41.6779,47.0569 52.4009,51.4039 65.6269,51.4039 C78.8529,51.4039 89.5759,47.0569 89.5759,41.6939 C89.5759,40.7429 89.2369,39.8239 88.6079,38.9549 C85.6919,42.9849 76.5079,45.9269 65.6269,45.9269" id="Fill-25" fill="#5C8B37"></path>
                <path d="M42.8774,40.8139 C42.7884,41.1079 42.7434,41.4019 42.7434,41.6939 C42.7434,45.8689 51.9384,50.3389 65.6274,50.3389 C79.3154,50.3389 88.5104,45.8689 88.5104,41.6939 C88.5104,41.4019 88.4654,41.1079 88.3764,40.8139 C84.4114,44.5579 75.6214,46.9919 65.6274,46.9919 C55.6334,46.9919 46.8434,44.5579 42.8774,40.8139 M65.6274,52.4699 C51.6004,52.4699 40.6124,47.7369 40.6124,41.6939 C40.6124,40.5349 41.0064,39.4039 41.7824,38.3309 C42.1824,37.7769 43.1064,37.7759 43.5094,38.3299 C46.2914,42.1759 55.3874,44.8609 65.6274,44.8609 C75.8664,44.8609 84.9624,42.1759 87.7444,38.3299 C87.9454,38.0529 88.2674,37.8899 88.6084,37.8899 C88.9504,37.8899 89.2714,38.0529 89.4724,38.3309 C90.2484,39.4039 90.6414,40.5349 90.6414,41.6939 C90.6414,47.7369 79.6534,52.4699 65.6274,52.4699" id="Fill-26" fill="#000000"></path>
                <path d="M68.7022,52.5533 L62.4042,52.5533 C61.9272,52.5533 61.5362,52.1623 61.5362,51.6853 L61.5362,45.8243 C61.5362,45.3473 61.9272,44.9563 62.4042,44.9563 L68.7022,44.9563 C69.1792,44.9563 69.5702,45.3473 69.5702,45.8243 L69.5702,51.6853 C69.5702,52.1623 69.1792,52.5533 68.7022,52.5533" id="Fill-27" fill="#3C2415"></path>
                <path d="M62.6028,51.4879 L68.5058,51.4879 L68.5058,46.0219 L62.6028,46.0219 L62.6028,51.4879 Z M68.7028,53.6189 L62.4038,53.6189 C61.3388,53.6189 60.4718,52.7509 60.4718,51.6849 L60.4718,45.8239 C60.4718,44.7579 61.3388,43.8909 62.4038,43.8909 L68.7028,43.8909 C69.7688,43.8909 70.6358,44.7579 70.6358,45.8239 L70.6358,51.6849 C70.6358,52.7509 69.7688,53.6189 68.7028,53.6189 L68.7028,53.6189 Z" id="Fill-28" fill="#000000"></path>
                <path d="M54.8743,29.434 C53.5393,29.434 51.0383,29.193 49.3453,27.592 C47.3043,25.662 45.9113,23.756 45.8533,23.675 C45.5073,23.2 45.6123,22.533 46.0873,22.187 C46.5653,21.841 47.2313,21.948 47.5763,22.421 C47.5903,22.44 48.9183,24.255 50.8093,26.043 C52.4013,27.549 55.3723,27.296 55.4523,27.289 C55.4233,27.288 58.5723,26.602 60.9683,25.091 C62.9223,23.86 62.8473,22.505 62.8433,22.448 L62.8373,12.212 C62.8373,11.624 63.3153,11.147 63.9033,11.147 C64.4913,11.147 64.9683,11.624 64.9683,12.212 L64.9683,22.309 C64.9963,22.815 64.9523,25.099 62.1053,26.894 C59.3583,28.626 55.9223,29.361 55.7773,29.392 C55.7033,29.401 55.3693,29.434 54.8743,29.434" id="Fill-29" fill="#000000"></path>
                <path d="M76.2831,29.44 C75.8361,29.44 75.5471,29.413 75.5061,29.409 C75.2481,29.361 71.8121,28.625 69.0651,26.894 C66.2201,25.1 66.1751,22.815 66.2021,22.308 L66.2021,12.212 C66.2021,11.623 66.6801,11.146 67.2681,11.146 C67.8561,11.146 68.3331,11.623 68.3331,12.212 L68.3331,22.341 C68.3331,22.385 68.3311,22.429 68.3251,22.473 C68.3241,22.504 68.2491,23.859 70.2021,25.091 C72.5971,26.601 75.7471,27.287 75.8311,27.305 C75.8311,27.305 75.9831,27.316 76.2671,27.316 C77.1451,27.316 79.1501,27.188 80.3611,26.043 C82.2521,24.254 83.5831,22.439 83.5961,22.421 C83.9401,21.946 84.6071,21.839 85.0841,22.187 C85.5591,22.533 85.6641,23.199 85.3181,23.675 C85.2611,23.756 83.8671,25.661 81.8261,27.591 C80.1081,29.217 77.5571,29.44 76.2831,29.44 L76.2831,29.44 Z" id="Fill-30" fill="#000000"></path>
                <path d="M103.603,32.5644 C104.821,38.5844 101.162,50.2864 101.162,50.2864 L101.097,51.1124 C90.6589,50.2864 90.1809,42.7154 90.1809,42.7154 C90.1809,42.7154 97.1969,39.7904 100.4,29.639 C100.4,29.639 102.382,26.541 103.603,32.5644" id="Fill-31" fill="#FFFFFF"></path>
                <path d="M91.3573,43.3179 C91.7393,44.9529 93.3663,49.0409 100.152,49.9429 C100.342,49.3229 103.68,38.3239 102.558,32.7759 C102.15,30.76 101.711,30.127 101.545,29.95 C101.488,29.994 101.42,30.061 101.361,30.13 C98.6253,38.6279 93.3403,42.2279 91.3573,43.3179 M101.096,52.1779 C101.068,52.1779 101.04,52.1769 101.012,52.1749 C89.7833,51.2869 89.1223,42.8679 89.1183,42.7819 C89.0893,42.3289 89.3513,41.9069 89.7703,41.7319 C89.8333,41.7049 96.3833,38.8259 99.3843,29.319 C99.4113,29.229 99.4523,29.144 99.5033,29.065 C99.9513,28.362 100.842,27.61 101.917,27.809 C103.603,28.124 104.282,30.553 104.648,32.3529 L104.648,32.3539 C105.853,38.3119 102.619,49.1669 102.213,50.4879 L102.158,51.1959 C102.136,51.4779 102.004,51.7399 101.788,51.9229 C101.594,52.0879 101.349,52.1779 101.096,52.1779" id="Fill-32" fill="#000000"></path>
                <path d="M101.161,50.2864 C101.161,50.2864 104.82,38.5844 103.602,32.5644 C102.382,26.541 100.4,29.639 100.4,29.639 C97.1974,39.7904 90.1814,42.7154 90.1814,42.7154 C90.1814,42.7154 90.6584,50.2864 101.096,51.1124 C103.149,51.2794 105.588,51.1804 108.482,50.7144" id="Fill-33" fill="#FFFFFF"></path>
                <path d="M91.3573,43.3179 C91.7393,44.9529 93.3663,49.0409 100.152,49.9429 C100.342,49.3229 103.68,38.3239 102.558,32.7759 C102.15,30.76 101.711,30.127 101.545,29.95 C101.488,29.994 101.42,30.061 101.361,30.13 C98.6253,38.6279 93.3403,42.2279 91.3573,43.3179 M103.017,52.2529 C102.323,52.2529 101.654,52.2269 101.011,52.1749 C89.7833,51.2869 89.1223,42.8679 89.1183,42.7819 C89.0893,42.3289 89.3513,41.9069 89.7703,41.7319 C89.8333,41.7049 96.3833,38.8259 99.3843,29.319 C99.4113,29.229 99.4523,29.144 99.5033,29.065 C99.9513,28.362 100.842,27.61 101.917,27.809 C103.603,28.124 104.282,30.553 104.648,32.3529 C105.774,37.9239 103.022,47.7739 102.326,50.1129 C104.133,50.1619 106.137,50.0119 108.313,49.6629 C108.895,49.5719 109.441,49.9649 109.535,50.5459 C109.628,51.1269 109.234,51.6739 108.652,51.7669 C106.639,52.0909 104.753,52.2529 103.017,52.2529" id="Fill-34" fill="#000000"></path>
                <path d="M30.1473,29.639 C33.3503,39.79 40.3663,42.716 40.3663,42.716 C40.3663,42.716 39.8883,50.283 29.4503,51.113 L29.3863,50.286 C29.3863,50.286 25.7233,38.585 26.9443,32.564 C28.1653,26.541 30.1473,29.639 30.1473,29.639" id="Fill-35" fill="#FFFFFF"></path>
                <path d="M29.0022,29.95 C28.8362,30.126 28.3982,30.761 27.9902,32.7759 C26.8642,38.3229 30.2022,49.3159 30.3952,49.9409 C37.1392,49.0379 38.7922,44.9409 39.1842,43.3159 C37.1982,42.2219 31.9192,38.6209 29.1852,30.13 C29.1272,30.061 29.0592,29.994 29.0022,29.95 M29.4512,52.1779 C29.1982,52.1779 28.9522,52.0879 28.7592,51.9239 C28.5432,51.7399 28.4102,51.4779 28.3892,51.1959 L28.3332,50.4879 C27.9272,49.1669 24.6922,38.3119 25.9002,32.3529 C26.2652,30.553 26.9452,28.124 28.6302,27.809 C29.6952,27.613 30.5932,28.361 31.0442,29.065 C31.0952,29.144 31.1352,29.229 31.1632,29.319 C34.1632,38.8249 40.7142,41.7049 40.7802,41.7339 C41.1952,41.9099 41.4582,42.3309 41.4292,42.7819 C41.4242,42.8679 40.7642,51.2819 29.5352,52.1749 C29.5072,52.1769 29.4782,52.1779 29.4512,52.1779" id="Fill-36" fill="#000000"></path>
                <path d="M29.3859,50.2864 C29.3859,50.2864 25.7239,38.5844 26.9449,32.5644 C28.1649,26.541 30.1469,29.639 30.1469,29.639 C33.3499,39.7904 40.3659,42.7154 40.3659,42.7154 C40.3659,42.7154 39.8889,50.2834 29.4509,51.1124 C27.3979,51.2794 24.9589,51.1804 22.0649,50.7144" id="Fill-37" fill="#FFFFFF"></path>
                <path d="M29.0022,29.949 C28.8362,30.126 28.3982,30.76 27.9902,32.7764 C26.8642,38.3224 30.2022,49.3164 30.3952,49.9414 C37.1392,49.0374 38.7922,44.9404 39.1842,43.3154 C37.1982,42.2214 31.9192,38.6214 29.1842,30.128 C29.1282,30.061 29.0602,29.994 29.0022,29.949 M27.5292,52.2534 C25.7952,52.2534 23.9092,52.0904 21.8952,51.7674 C21.3142,51.6734 20.9202,51.1264 21.0132,50.5464 C21.1072,49.9654 21.6512,49.5714 22.2342,49.6624 C24.4092,50.0124 26.4172,50.1614 28.2192,50.1124 C27.5252,47.7734 24.7702,37.9244 25.9002,32.3534 C26.2652,30.553 26.9452,28.124 28.6302,27.808 C29.6952,27.613 30.5932,28.361 31.0442,29.065 C31.0952,29.144 31.1352,29.229 31.1632,29.318 C34.1632,38.8254 40.7142,41.7054 40.7802,41.7334 C41.1952,41.9104 41.4582,42.3314 41.4292,42.7824 C41.4242,42.8674 40.7642,51.2824 29.5352,52.1744 C28.8922,52.2274 28.2232,52.2534 27.5292,52.2534" id="Fill-38" fill="#000000"></path>
                <path d="M74.3214,92.8004 C74.1774,92.8004 74.0304,92.7714 73.8914,92.7084 C65.8694,89.1544 56.7054,92.6894 56.6144,92.7254 C56.0694,92.9414 55.4484,92.6734 55.2334,92.1254 C55.0174,91.5784 55.2844,90.9604 55.8314,90.7434 C56.2364,90.5814 65.9034,86.8364 74.7534,90.7604 C75.2924,90.9984 75.5354,91.6284 75.2974,92.1664 C75.1204,92.5644 74.7304,92.8004 74.3214,92.8004" id="Fill-39" fill="#FFFFFF"></path>
            </g>
        </g>
    </g>
</svg>