<?xml version="1.0" encoding="UTF-8"?>
<svg width="1920" height="1920" version="1.1" viewBox="0 0 1920 1920.0001" xmlns="http://www.w3.org/2000/svg">
 <g transform="translate(2188.7 37.21)">
  <g transform="matrix(1.92 0 0 1.92 2789.4 -149.54)">
   <rect x="-2592.7" y="58.506" width="1e3" height="1e3" rx="100" ry="100" fill="#fff"/>
   <path d="m-2492.7 58.506c-55.4 0-100 44.6-100 100v800c0 55.4 44.6 100 100 100h800c55.4 0 100-44.6 100-100v-800c0-55.4-44.6-100-100-100h-800zm275.61 59.125c44.167 0 79.971 34.963 79.971 78.092-0.01 40.866-28.14 74.816-69.873 77.861l11.732 157.12h166.68v74.752h-160.06l4.7442 49.67h265.81l0.3594-0.13671 101.14 254.65 60.273-22.357 28.219 70.893-137.73 49.793c-35.885-92.245-70.08-181.94-106.34-274.05h-284.86l-0.031-4.041-29.549-395.72c-6.8274-11.714-10.434-24.954-10.469-38.432 0-43.129 35.805-78.092 79.973-78.092zm-74.344 321.15 9.6993 89.83c-62.276 38.57-91.745 107.59-91.768 179.6-5e-4 116.18 89.206 206.32 208.18 206.32 100.89-0.0772 177.86-76.595 209.08-172.76l38.773 99.674c-46.817 98.699-141.44 157.81-249.92 157.94-162.4-6e-4 -289.9-134.61-289.9-293.19 0.1179-112.71 60.687-220.98 165.86-267.41z" fill="#162157"/>
  </g>
 </g>
</svg>
