<svg version="1.1" viewBox="0.0 0.0 600.0 371.0" fill="none" stroke="none" stroke-linecap="square" stroke-miterlimit="10" width="600" height="371" xmlns:xlink="http://www.w3.org/1999/xlink" xmlns="http://www.w3.org/2000/svg"><path fill="#ffffff" d="M0 0L600.0 0L600.0 371.0L0 371.0L0 0Z" fill-rule="nonzero"/><path stroke="#333333" stroke-width="1.0" stroke-linecap="butt" d="M84.5 54.5L84.5 332.5" fill-rule="nonzero"/><path stroke="#cccccc" stroke-width="1.0" stroke-linecap="butt" d="M250.5 54.5L250.5 332.5" fill-rule="nonzero"/><path stroke="#cccccc" stroke-width="1.0" stroke-linecap="butt" d="M415.5 54.5L415.5 332.5" fill-rule="nonzero"/><path stroke="#cccccc" stroke-width="1.0" stroke-linecap="butt" d="M581.5 54.5L581.5 332.5" fill-rule="nonzero"/><clipPath id="id_0"><path d="M84.55 54.916668L581.45 54.916668L581.45 332.45L84.55 332.45L84.55 54.916668Z" clip-rule="nonzero"/></clipPath><path stroke="#000000" stroke-width="2.0" stroke-linecap="butt" stroke-opacity="0.0" clip-path="url(#id_0)" d="M85.0 119.0L85.0 78.0L546.0 78.0C547.10455 78.0 548.0 78.89543 548.0 80.0L548.0 117.0C548.0 118.10457 547.10455 119.0 546.0 119.0Z" fill-rule="nonzero"/><path fill="#351c75" clip-path="url(#id_0)" d="M85.0 119.0L85.0 78.0L546.0 78.0C547.10455 78.0 548.0 78.89543 548.0 80.0L548.0 117.0C548.0 118.10457 547.10455 119.0 546.0 119.0Z" fill-rule="nonzero"/><path stroke="#000000" stroke-width="2.0" stroke-linecap="butt" stroke-opacity="0.0" clip-path="url(#id_0)" d="M85.0 183.0L85.0 142.0L339.0 142.0C340.10458 142.0 341.0 142.89543 341.0 144.0L341.0 181.0C341.0 182.10457 340.10458 183.0 339.0 183.0Z" fill-rule="nonzero"/><path fill="#351c75" clip-path="url(#id_0)" d="M85.0 183.0L85.0 142.0L339.0 142.0C340.10458 142.0 341.0 142.89543 341.0 144.0L341.0 181.0C341.0 182.10457 340.10458 183.0 339.0 183.0Z" fill-rule="nonzero"/><path stroke="#000000" stroke-width="2.0" stroke-linecap="butt" stroke-opacity="0.0" clip-path="url(#id_0)" d="M85.0 247.0L85.0 206.0L298.0 206.0C299.10458 206.0 300.0 206.89543 300.0 208.0L300.0 245.0C300.0 246.10457 299.10458 247.0 298.0 247.0Z" fill-rule="nonzero"/><path fill="#351c75" clip-path="url(#id_0)" d="M85.0 247.0L85.0 206.0L298.0 206.0C299.10458 206.0 300.0 206.89543 300.0 208.0L300.0 245.0C300.0 246.10457 299.10458 247.0 298.0 247.0Z" fill-rule="nonzero"/><path stroke="#000000" stroke-width="2.0" stroke-linecap="butt" stroke-opacity="0.0" clip-path="url(#id_0)" d="M85.0 310.0L85.0 269.0L198.0 269.0C199.10457 269.0 200.0 269.89542 200.0 271.0L200.0 308.0C200.0 309.10458 199.10457 310.0 198.0 310.0Z" fill-rule="nonzero"/><path fill="#351c75" clip-path="url(#id_0)" d="M85.0 310.0L85.0 269.0L198.0 269.0C199.10457 269.0 200.0 269.89542 200.0 271.0L200.0 308.0C200.0 309.10458 199.10457 310.0 198.0 310.0Z" fill-rule="nonzero"/><path stroke="#351c75" stroke-width="3.0" stroke-linejoin="round" stroke-linecap="round" d="M494.37332 97.703125L495.1077 91.203125L502.27957 91.203125L502.27957 93.328125L497.18582 93.328125L496.87332 96.078125Q497.77957 95.59375 498.7952 95.59375Q500.62332 95.59375 501.65457 96.734375Q502.70145 97.859375 502.70145 99.890625Q502.70145 101.140625 502.1702 102.125Q501.65457 103.09375 500.6702 103.640625Q499.70145 104.171875 498.37332 104.171875Q497.21707 104.171875 496.21707 103.703125Q495.2327 103.234375 494.65457 102.390625Q494.07645 101.53125 494.0452 100.4375L496.56082 100.4375Q496.63895 101.234375 497.1077 101.6875Q497.59207 102.125 498.37332 102.125Q499.2327 102.125 499.70145 101.515625Q500.1702 100.890625 500.1702 99.75Q500.1702 98.671875 499.62332 98.09375Q499.09207 97.5 498.1077 97.5Q497.20145 97.5 496.63895 97.984375L496.38895 98.203125L494.37332 97.703125ZM504.2327 102.75Q504.2327 102.140625 504.63895 101.765625Q505.0452 101.390625 505.6702 101.390625Q506.2952 101.390625 506.70145 101.765625Q507.1077 102.140625 507.1077 102.75Q507.1077 103.34375 506.70145 103.71875Q506.2952 104.09375 505.6702 104.09375Q505.0452 104.09375 504.63895 103.71875Q504.2327 103.34375 504.2327 102.75ZM515.889 91.078125L515.889 93.15625L515.639 93.15625Q513.9202 93.1875 512.8577 94.0625Q511.81082 94.921875 511.6077 96.46875Q512.62335 95.4375 514.18585 95.4375Q515.8421 95.4375 516.8265 96.640625Q517.81085 97.828125 517.81085 99.78125Q517.81085 101.03125 517.264 102.046875Q516.7327 103.046875 515.74835 103.609375Q514.764 104.171875 513.514 104.171875Q511.4827 104.171875 510.2327 102.765625Q508.99832 101.359375 508.99832 99.015625L508.99832 98.109375Q508.99832 96.015625 509.77957 94.421875Q510.57645 92.828125 512.0452 91.953125Q513.514 91.078125 515.4671 91.078125L515.889 91.078125ZM513.4046 97.484375Q512.7952 97.484375 512.2952 97.8125Q511.7952 98.125 511.5452 98.640625L511.5452 99.421875Q511.5452 100.6875 512.0452 101.40625Q512.56085 102.125 513.4515 102.125Q514.2796 102.125 514.7796 101.484375Q515.2796 100.828125 515.2796 99.8125Q515.2796 98.765625 514.764 98.125Q514.264 97.484375 513.4046 97.484375ZM527.6077 98.703125Q527.6077 101.359375 526.49835 102.765625Q525.4046 104.171875 523.2952 104.171875Q521.2015 104.171875 520.0921 102.796875Q518.9827 101.421875 518.9515 98.84375L518.9515 96.484375Q518.9515 93.796875 520.06085 92.421875Q521.18585 91.03125 523.2796 91.03125Q525.37335 91.03125 526.4671 92.40625Q527.5765 93.78125 527.6077 96.359375L527.6077 98.703125ZM525.06085 96.125Q525.06085 94.53125 524.62335 93.8125Q524.2015 93.078125 523.2796 93.078125Q522.37335 93.078125 521.9515 93.78125Q521.5296 94.46875 521.49835 95.9375L521.49835 99.046875Q521.49835 100.609375 521.9202 101.375Q522.3577 102.125 523.2952 102.125Q524.2171 102.125 524.62335 101.40625Q525.0452 100.671875 525.06085 99.171875L525.06085 96.125ZM528.9515 93.65625Q528.9515 92.484375 529.7171 91.75Q530.4827 91.015625 531.7327 91.015625Q532.9827 91.015625 533.74835 91.75Q534.514 92.46875 534.514 93.703125L534.514 94.34375Q534.514 95.53125 533.74835 96.25Q532.9827 96.96875 531.74835 96.96875Q530.49835 96.96875 529.7171 96.25Q528.9515 95.515625 528.9515 94.28125L528.9515 93.65625ZM530.639 94.34375Q530.639 94.875 530.93585 95.203125Q531.24835 95.515625 531.7327 95.515625Q532.2327 95.515625 532.514 95.1875Q532.81085 94.859375 532.81085 94.3125L532.81085 93.65625Q532.81085 93.140625 532.514 92.8125Q532.2327 92.484375 531.7327 92.484375Q531.24835 92.484375 530.93585 92.8125Q530.639 93.125 530.639 93.703125L530.639 94.34375ZM535.0765 100.859375Q535.0765 99.671875 535.8421 98.953125Q536.62335 98.21875 537.8577 98.21875Q539.1077 98.21875 539.87335 98.9375Q540.639 99.65625 540.639 100.921875L540.639 101.546875Q540.639 102.71875 539.87335 103.453125Q539.12335 104.171875 537.87335 104.171875Q536.6077 104.171875 535.8421 103.453125Q535.0765 102.71875 535.0765 101.515625L535.0765 100.859375ZM536.764 101.546875Q536.764 102.03125 537.0765 102.375Q537.389 102.71875 537.87335 102.71875Q538.93585 102.71875 538.93585 101.53125L538.93585 100.859375Q538.93585 100.328125 538.639 100.015625Q538.3421 99.6875 537.8421 99.6875Q537.3577 99.6875 537.06085 100.015625Q536.764 100.328125 536.764 100.890625L536.764 101.546875ZM532.24835 103.046875L531.014 102.375L537.24835 92.375L538.49835 93.046875L532.24835 103.046875Z" fill-rule="nonzero"/><path fill="#ffffff" d="M494.37332 97.703125L495.1077 91.203125L502.27957 91.203125L502.27957 93.328125L497.18582 93.328125L496.87332 96.078125Q497.77957 95.59375 498.7952 95.59375Q500.62332 95.59375 501.65457 96.734375Q502.70145 97.859375 502.70145 99.890625Q502.70145 101.140625 502.1702 102.125Q501.65457 103.09375 500.6702 103.640625Q499.70145 104.171875 498.37332 104.171875Q497.21707 104.171875 496.21707 103.703125Q495.2327 103.234375 494.65457 102.390625Q494.07645 101.53125 494.0452 100.4375L496.56082 100.4375Q496.63895 101.234375 497.1077 101.6875Q497.59207 102.125 498.37332 102.125Q499.2327 102.125 499.70145 101.515625Q500.1702 100.890625 500.1702 99.75Q500.1702 98.671875 499.62332 98.09375Q499.09207 97.5 498.1077 97.5Q497.20145 97.5 496.63895 97.984375L496.38895 98.203125L494.37332 97.703125ZM504.2327 102.75Q504.2327 102.140625 504.63895 101.765625Q505.0452 101.390625 505.6702 101.390625Q506.2952 101.390625 506.70145 101.765625Q507.1077 102.140625 507.1077 102.75Q507.1077 103.34375 506.70145 103.71875Q506.2952 104.09375 505.6702 104.09375Q505.0452 104.09375 504.63895 103.71875Q504.2327 103.34375 504.2327 102.75ZM515.8889 91.078125L515.8889 93.15625L515.6389 93.15625Q513.92017 93.1875 512.85767 94.0625Q511.81082 94.921875 511.6077 96.46875Q512.6233 95.4375 514.1858 95.4375Q515.84204 95.4375 516.8264 96.640625Q517.8108 97.828125 517.8108 99.78125Q517.8108 101.03125 517.2639 102.046875Q516.73267 103.046875 515.7483 103.609375Q514.7639 104.171875 513.5139 104.171875Q511.4827 104.171875 510.2327 102.765625Q508.99832 101.359375 508.99832 99.015625L508.99832 98.109375Q508.99832 96.015625 509.77957 94.421875Q510.57645 92.828125 512.04517 91.953125Q513.5139 91.078125 515.46704 91.078125L515.8889 91.078125ZM513.40454 97.484375Q512.79517 97.484375 512.29517 97.8125Q511.7952 98.125 511.5452 98.640625L511.5452 99.421875Q511.5452 100.6875 512.04517 101.40625Q512.5608 102.125 513.4514 102.125Q514.27954 102.125 514.77954 101.484375Q515.27954 100.828125 515.27954 99.8125Q515.27954 98.765625 514.7639 98.125Q514.2639 97.484375 513.40454 97.484375ZM527.60767 98.703125Q527.60767 101.359375 526.4983 102.765625Q525.40454 104.171875 523.29517 104.171875Q521.2014 104.171875 520.09204 102.796875Q518.98267 101.421875 518.9514 98.84375L518.9514 96.484375Q518.9514 93.796875 520.0608 92.421875Q521.1858 91.03125 523.27954 91.03125Q525.3733 91.03125 526.46704 92.40625Q527.5764 93.78125 527.60767 96.359375L527.60767 98.703125ZM525.0608 96.125Q525.0608 94.53125 524.6233 93.8125Q524.2014 93.078125 523.27954 93.078125Q522.3733 93.078125 521.9514 93.78125Q521.52954 94.46875 521.4983 95.9375L521.4983 99.046875Q521.4983 100.609375 521.92017 101.375Q522.35767 102.125 523.29517 102.125Q524.21704 102.125 524.6233 101.40625Q525.04517 100.671875 525.0608 99.171875L525.0608 96.125ZM528.9514 93.65625Q528.9514 92.484375 529.71704 91.75Q530.48267 91.015625 531.73267 91.015625Q532.98267 91.015625 533.7483 91.75Q534.5139 92.46875 534.5139 93.703125L534.5139 94.34375Q534.5139 95.53125 533.7483 96.25Q532.98267 96.96875 531.7483 96.96875Q530.4983 96.96875 529.71704 96.25Q528.9514 95.515625 528.9514 94.28125L528.9514 93.65625ZM530.6389 94.34375Q530.6389 94.875 530.9358 95.203125Q531.2483 95.515625 531.73267 95.515625Q532.23267 95.515625 532.5139 95.1875Q532.8108 94.859375 532.8108 94.3125L532.8108 93.65625Q532.8108 93.140625 532.5139 92.8125Q532.23267 92.484375 531.73267 92.484375Q531.2483 92.484375 530.9358 92.8125Q530.6389 93.125 530.6389 93.703125L530.6389 94.34375ZM535.0764 100.859375Q535.0764 99.671875 535.84204 98.953125Q536.6233 98.21875 537.85767 98.21875Q539.10767 98.21875 539.8733 98.9375Q540.6389 99.65625 540.6389 100.921875L540.6389 101.546875Q540.6389 102.71875 539.8733 103.453125Q539.1233 104.171875 537.8733 104.171875Q536.60767 104.171875 535.84204 103.453125Q535.0764 102.71875 535.0764 101.515625L535.0764 100.859375ZM536.7639 101.546875Q536.7639 102.03125 537.0764 102.375Q537.3889 102.71875 537.8733 102.71875Q538.9358 102.71875 538.9358 101.53125L538.9358 100.859375Q538.9358 100.328125 538.6389 100.015625Q538.34204 99.6875 537.84204 99.6875Q537.35767 99.6875 537.0608 100.015625Q536.7639 100.328125 536.7639 100.890625L536.7639 101.546875ZM532.2483 103.046875L531.0139 102.375L537.2483 92.375L538.4983 93.046875L532.2483 103.046875Z" fill-rule="nonzero"/><path stroke="#351c75" stroke-width="3.0" stroke-linejoin="round" stroke-linecap="round" d="M289.5348 160.46875L290.89417 160.46875Q291.8629 160.46875 292.31604 160.0Q292.7848 159.51562 292.7848 158.70312Q292.7848 157.9375 292.31604 157.51562Q291.8629 157.07812 291.0504 157.07812Q290.33167 157.07812 289.83167 157.48438Q289.3473 157.875 289.3473 158.51562L286.8004 158.51562Q286.8004 157.51562 287.33167 156.71875Q287.87854 155.92188 288.8473 155.48438Q289.83167 155.03125 290.9879 155.03125Q293.01917 155.03125 294.1754 156.0Q295.33167 156.96875 295.33167 158.67188Q295.33167 159.54688 294.7848 160.29688Q294.25354 161.03125 293.37854 161.42188Q294.4723 161.8125 295.00354 162.59375Q295.5348 163.35938 295.5348 164.40625Q295.5348 166.125 294.2848 167.15625Q293.0504 168.17188 290.9879 168.17188Q289.08167 168.17188 287.8629 167.17188Q286.64417 166.15625 286.64417 164.5L289.19104 164.5Q289.19104 165.21875 289.7223 165.67188Q290.26917 166.125 291.0504 166.125Q291.95667 166.125 292.4723 165.65625Q292.9879 165.17188 292.9879 164.375Q292.9879 162.46875 290.87854 162.46875L289.5348 162.46875L289.5348 160.46875ZM297.19104 166.75Q297.19104 166.14062 297.5973 165.76562Q298.00354 165.39062 298.62854 165.39062Q299.25354 165.39062 299.6598 165.76562Q300.06604 166.14062 300.06604 166.75Q300.06604 167.34375 299.6598 167.71875Q299.25354 168.09375 298.62854 168.09375Q298.00354 168.09375 297.5973 167.71875Q297.19104 167.34375 297.19104 166.75ZM308.12854 168.0L305.58167 168.0L305.58167 158.20312L302.5504 159.15625L302.5504 157.07812L307.8473 155.1875L308.12854 155.1875L308.12854 168.0ZM320.56604 162.70312Q320.56604 165.35938 319.45667 166.76562Q318.3629 168.17188 316.25354 168.17188Q314.1598 168.17188 313.0504 166.79688Q311.94104 165.42188 311.9098 162.84375L311.9098 160.48438Q311.9098 157.79688 313.01917 156.42188Q314.14417 155.03125 316.2379 155.03125Q318.33167 155.03125 319.4254 156.40625Q320.5348 157.78125 320.56604 160.35938L320.56604 162.70312ZM318.01917 160.125Q318.01917 158.53125 317.58167 157.8125Q317.1598 157.07812 316.2379 157.07812Q315.33167 157.07812 314.9098 157.78125Q314.4879 158.46875 314.45667 159.9375L314.45667 163.04688Q314.45667 164.60938 314.87854 165.375Q315.31604 166.125 316.25354 166.125Q317.1754 166.125 317.58167 165.40625Q318.00354 164.67188 318.01917 163.17188L318.01917 160.125ZM321.9098 157.65625Q321.9098 156.48438 322.6754 155.75Q323.44104 155.01562 324.69104 155.01562Q325.94104 155.01562 326.70667 155.75Q327.4723 156.46875 327.4723 157.70312L327.4723 158.34375Q327.4723 159.53125 326.70667 160.25Q325.94104 160.96875 324.70667 160.96875Q323.45667 160.96875 322.6754 160.25Q321.9098 159.51562 321.9098 158.28125L321.9098 157.65625ZM323.5973 158.34375Q323.5973 158.875 323.89417 159.20312Q324.20667 159.51562 324.69104 159.51562Q325.19104 159.51562 325.4723 159.1875Q325.76917 158.85938 325.76917 158.3125L325.76917 157.65625Q325.76917 157.14062 325.4723 156.8125Q325.19104 156.48438 324.69104 156.48438Q324.20667 156.48438 323.89417 156.8125Q323.5973 157.125 323.5973 157.70312L323.5973 158.34375ZM328.0348 164.85938Q328.0348 163.67188 328.8004 162.95312Q329.58167 162.21875 330.81604 162.21875Q332.06604 162.21875 332.83167 162.9375Q333.5973 163.65625 333.5973 164.92188L333.5973 165.54688Q333.5973 166.71875 332.83167 167.45312Q332.08167 168.17188 330.83167 168.17188Q329.56604 168.17188 328.8004 167.45312Q328.0348 166.71875 328.0348 165.51562L328.0348 164.85938ZM329.7223 165.54688Q329.7223 166.03125 330.0348 166.375Q330.3473 166.71875 330.83167 166.71875Q331.89417 166.71875 331.89417 165.53125L331.89417 164.85938Q331.89417 164.32812 331.5973 164.01562Q331.3004 163.6875 330.8004 163.6875Q330.31604 163.6875 330.01917 164.01562Q329.7223 164.32812 329.7223 164.89062L329.7223 165.54688ZM325.20667 167.04688L323.9723 166.375L330.20667 156.375L331.45667 157.04688L325.20667 167.04688Z" fill-rule="nonzero"/><path fill="#ffffff" d="M289.5348 160.46875L290.89417 160.46875Q291.8629 160.46875 292.31604 160.0Q292.7848 159.51562 292.7848 158.70312Q292.7848 157.9375 292.31604 157.51562Q291.8629 157.07812 291.0504 157.07812Q290.33167 157.07812 289.83167 157.48438Q289.3473 157.875 289.3473 158.51562L286.8004 158.51562Q286.8004 157.51562 287.33167 156.71875Q287.87854 155.92188 288.8473 155.48438Q289.83167 155.03125 290.9879 155.03125Q293.01917 155.03125 294.1754 156.0Q295.33167 156.96875 295.33167 158.67188Q295.33167 159.54688 294.7848 160.29688Q294.25354 161.03125 293.37854 161.42188Q294.4723 161.8125 295.00354 162.59375Q295.5348 163.35938 295.5348 164.40625Q295.5348 166.125 294.2848 167.15625Q293.0504 168.17188 290.9879 168.17188Q289.08167 168.17188 287.8629 167.17188Q286.64417 166.15625 286.64417 164.5L289.19104 164.5Q289.19104 165.21875 289.7223 165.67188Q290.26917 166.125 291.0504 166.125Q291.95667 166.125 292.4723 165.65625Q292.9879 165.17188 292.9879 164.375Q292.9879 162.46875 290.87854 162.46875L289.5348 162.46875L289.5348 160.46875ZM297.19104 166.75Q297.19104 166.14062 297.5973 165.76562Q298.00354 165.39062 298.62854 165.39062Q299.25354 165.39062 299.6598 165.76562Q300.06604 166.14062 300.06604 166.75Q300.06604 167.34375 299.6598 167.71875Q299.25354 168.09375 298.62854 168.09375Q298.00354 168.09375 297.5973 167.71875Q297.19104 167.34375 297.19104 166.75ZM308.12854 168.0L305.58167 168.0L305.58167 158.20312L302.5504 159.15625L302.5504 157.07812L307.8473 155.1875L308.12854 155.1875L308.12854 168.0ZM320.56604 162.70312Q320.56604 165.35938 319.45667 166.76562Q318.3629 168.17188 316.25354 168.17188Q314.1598 168.17188 313.0504 166.79688Q311.94104 165.42188 311.9098 162.84375L311.9098 160.48438Q311.9098 157.79688 313.01917 156.42188Q314.14417 155.03125 316.2379 155.03125Q318.33167 155.03125 319.4254 156.40625Q320.5348 157.78125 320.56604 160.35938L320.56604 162.70312ZM318.01917 160.125Q318.01917 158.53125 317.58167 157.8125Q317.1598 157.07812 316.2379 157.07812Q315.33167 157.07812 314.9098 157.78125Q314.4879 158.46875 314.45667 159.9375L314.45667 163.04688Q314.45667 164.60938 314.87854 165.375Q315.31604 166.125 316.25354 166.125Q317.1754 166.125 317.58167 165.40625Q318.00354 164.67188 318.01917 163.17188L318.01917 160.125ZM321.9098 157.65625Q321.9098 156.48438 322.6754 155.75Q323.44104 155.01562 324.69104 155.01562Q325.94104 155.01562 326.70667 155.75Q327.4723 156.46875 327.4723 157.70312L327.4723 158.34375Q327.4723 159.53125 326.70667 160.25Q325.94104 160.96875 324.70667 160.96875Q323.45667 160.96875 322.6754 160.25Q321.9098 159.51562 321.9098 158.28125L321.9098 157.65625ZM323.5973 158.34375Q323.5973 158.875 323.89417 159.20312Q324.20667 159.51562 324.69104 159.51562Q325.19104 159.51562 325.4723 159.1875Q325.76917 158.85938 325.76917 158.3125L325.76917 157.65625Q325.76917 157.14062 325.4723 156.8125Q325.19104 156.48438 324.69104 156.48438Q324.20667 156.48438 323.89417 156.8125Q323.5973 157.125 323.5973 157.70312L323.5973 158.34375ZM328.0348 164.85938Q328.0348 163.67188 328.8004 162.95312Q329.58167 162.21875 330.81604 162.21875Q332.06604 162.21875 332.83167 162.9375Q333.5973 163.65625 333.5973 164.92188L333.5973 165.54688Q333.5973 166.71875 332.83167 167.45312Q332.08167 168.17188 330.83167 168.17188Q329.56604 168.17188 328.8004 167.45312Q328.0348 166.71875 328.0348 165.51562L328.0348 164.85938ZM329.7223 165.54688Q329.7223 166.03125 330.0348 166.375Q330.3473 166.71875 330.83167 166.71875Q331.89417 166.71875 331.89417 165.53125L331.89417 164.85938Q331.89417 164.32812 331.5973 164.01562Q331.3004 163.6875 330.8004 163.6875Q330.31604 163.6875 330.01917 164.01562Q329.7223 164.32812 329.7223 164.89062L329.7223 165.54688ZM325.20667 167.04688L323.9723 166.375L330.20667 156.375L331.45667 157.04688L325.20667 167.04688Z" fill-rule="nonzero"/><path stroke="#351c75" stroke-width="3.0" stroke-linejoin="round" stroke-linecap="round" d="M254.31396 232.0L245.54834 232.0L245.54834 230.26562L249.68896 225.84375Q250.53271 224.92188 250.93896 224.23438Q251.36084 223.53125 251.36084 222.90625Q251.36084 222.04688 250.92334 221.5625Q250.48584 221.07812 249.68896 221.07812Q248.82959 221.07812 248.32959 221.67188Q247.84521 222.26562 247.84521 223.23438L245.28271 223.23438Q245.28271 222.0625 245.84521 221.09375Q246.40771 220.125 247.42334 219.57812Q248.43896 219.03125 249.73584 219.03125Q251.72021 219.03125 252.81396 219.98438Q253.90771 220.92188 253.90771 222.65625Q253.90771 223.60938 253.40771 224.59375Q252.92334 225.57812 251.72021 226.89062L248.81396 229.95312L254.31396 229.95312L254.31396 232.0ZM255.78271 230.75Q255.78271 230.14062 256.18896 229.76562Q256.5952 229.39062 257.2202 229.39062Q257.8452 229.39062 258.25146 229.76562Q258.6577 230.14062 258.6577 230.75Q258.6577 231.34375 258.25146 231.71875Q257.8452 232.09375 257.2202 232.09375Q256.5952 232.09375 256.18896 231.71875Q255.78271 231.34375 255.78271 230.75ZM267.43896 219.07812L267.43896 221.15625L267.18896 221.15625Q265.4702 221.1875 264.4077 222.0625Q263.36084 222.92188 263.1577 224.46875Q264.17334 223.4375 265.73584 223.4375Q267.3921 223.4375 268.37646 224.64062Q269.36084 225.82812 269.36084 227.78125Q269.36084 229.03125 268.81396 230.04688Q268.2827 231.04688 267.29834 231.60938Q266.31396 232.17188 265.06396 232.17188Q263.0327 232.17188 261.7827 230.76562Q260.54834 229.35938 260.54834 227.01562L260.54834 226.10938Q260.54834 224.01562 261.3296 222.42188Q262.12646 220.82812 263.5952 219.95312Q265.06396 219.07812 267.0171 219.07812L267.43896 219.07812ZM264.9546 225.48438Q264.3452 225.48438 263.8452 225.8125Q263.3452 226.125 263.0952 226.64062L263.0952 227.42188Q263.0952 228.6875 263.5952 229.40625Q264.11084 230.125 265.00146 230.125Q265.8296 230.125 266.3296 229.48438Q266.8296 228.82812 266.8296 227.8125Q266.8296 226.76562 266.31396 226.125Q265.81396 225.48438 264.9546 225.48438ZM279.1577 226.70312Q279.1577 229.35938 278.04834 230.76562Q276.9546 232.17188 274.8452 232.17188Q272.75146 232.17188 271.6421 230.79688Q270.5327 229.42188 270.50146 226.84375L270.50146 224.48438Q270.50146 221.79688 271.61084 220.42188Q272.73584 219.03125 274.8296 219.03125Q276.92334 219.03125 278.0171 220.40625Q279.12646 221.78125 279.1577 224.35938L279.1577 226.70312ZM276.61084 224.125Q276.61084 222.53125 276.17334 221.8125Q275.75146 221.07812 274.8296 221.07812Q273.92334 221.07812 273.50146 221.78125Q273.0796 222.46875 273.04834 223.9375L273.04834 227.04688Q273.04834 228.60938 273.4702 229.375Q273.9077 230.125 274.8452 230.125Q275.7671 230.125 276.17334 229.40625Q276.5952 228.67188 276.61084 227.17188L276.61084 224.125ZM280.50146 221.65625Q280.50146 220.48438 281.2671 219.75Q282.0327 219.01562 283.2827 219.01562Q284.5327 219.01562 285.29834 219.75Q286.06396 220.46875 286.06396 221.70312L286.06396 222.34375Q286.06396 223.53125 285.29834 224.25Q284.5327 224.96875 283.29834 224.96875Q282.04834 224.96875 281.2671 224.25Q280.50146 223.51562 280.50146 222.28125L280.50146 221.65625ZM282.18896 222.34375Q282.18896 222.875 282.48584 223.20312Q282.79834 223.51562 283.2827 223.51562Q283.7827 223.51562 284.06396 223.1875Q284.36084 222.85938 284.36084 222.3125L284.36084 221.65625Q284.36084 221.14062 284.06396 220.8125Q283.7827 220.48438 283.2827 220.48438Q282.79834 220.48438 282.48584 220.8125Q282.18896 221.125 282.18896 221.70312L282.18896 222.34375ZM286.62646 228.85938Q286.62646 227.67188 287.3921 226.95312Q288.17334 226.21875 289.4077 226.21875Q290.6577 226.21875 291.42334 226.9375Q292.18896 227.65625 292.18896 228.92188L292.18896 229.54688Q292.18896 230.71875 291.42334 231.45312Q290.67334 232.17188 289.42334 232.17188Q288.1577 232.17188 287.3921 231.45312Q286.62646 230.71875 286.62646 229.51562L286.62646 228.85938ZM288.31396 229.54688Q288.31396 230.03125 288.62646 230.375Q288.93896 230.71875 289.42334 230.71875Q290.48584 230.71875 290.48584 229.53125L290.48584 228.85938Q290.48584 228.32812 290.18896 228.01562Q289.8921 227.6875 289.3921 227.6875Q288.9077 227.6875 288.61084 228.01562Q288.31396 228.32812 288.31396 228.89062L288.31396 229.54688ZM283.79834 231.04688L282.56396 230.375L288.79834 220.375L290.04834 221.04688L283.79834 231.04688Z" fill-rule="nonzero"/><path fill="#ffffff" d="M254.31396 232.0L245.54834 232.0L245.54834 230.26562L249.68896 225.84375Q250.53271 224.92188 250.93896 224.23438Q251.36084 223.53125 251.36084 222.90625Q251.36084 222.04688 250.92334 221.5625Q250.48584 221.07812 249.68896 221.07812Q248.82959 221.07812 248.32959 221.67188Q247.84521 222.26562 247.84521 223.23438L245.28271 223.23438Q245.28271 222.0625 245.84521 221.09375Q246.40771 220.125 247.42334 219.57812Q248.43896 219.03125 249.73584 219.03125Q251.72021 219.03125 252.81396 219.98438Q253.90771 220.92188 253.90771 222.65625Q253.90771 223.60938 253.40771 224.59375Q252.92334 225.57812 251.72021 226.89062L248.81396 229.95312L254.31396 229.95312L254.31396 232.0ZM255.78271 230.75Q255.78271 230.14062 256.18896 229.76562Q256.5952 229.39062 257.2202 229.39062Q257.8452 229.39062 258.25146 229.76562Q258.6577 230.14062 258.6577 230.75Q258.6577 231.34375 258.25146 231.71875Q257.8452 232.09375 257.2202 232.09375Q256.5952 232.09375 256.18896 231.71875Q255.78271 231.34375 255.78271 230.75ZM267.43896 219.07812L267.43896 221.15625L267.18896 221.15625Q265.4702 221.1875 264.4077 222.0625Q263.36084 222.92188 263.1577 224.46875Q264.17334 223.4375 265.73584 223.4375Q267.3921 223.4375 268.37646 224.64062Q269.36084 225.82812 269.36084 227.78125Q269.36084 229.03125 268.81396 230.04688Q268.2827 231.04688 267.29834 231.60938Q266.31396 232.17188 265.06396 232.17188Q263.0327 232.17188 261.7827 230.76562Q260.54834 229.35938 260.54834 227.01562L260.54834 226.10938Q260.54834 224.01562 261.3296 222.42188Q262.12646 220.82812 263.5952 219.95312Q265.06396 219.07812 267.0171 219.07812L267.43896 219.07812ZM264.9546 225.48438Q264.3452 225.48438 263.8452 225.8125Q263.3452 226.125 263.0952 226.64062L263.0952 227.42188Q263.0952 228.6875 263.5952 229.40625Q264.11084 230.125 265.00146 230.125Q265.8296 230.125 266.3296 229.48438Q266.8296 228.82812 266.8296 227.8125Q266.8296 226.76562 266.31396 226.125Q265.81396 225.48438 264.9546 225.48438ZM279.1577 226.70312Q279.1577 229.35938 278.04834 230.76562Q276.9546 232.17188 274.8452 232.17188Q272.75146 232.17188 271.6421 230.79688Q270.5327 229.42188 270.50146 226.84375L270.50146 224.48438Q270.50146 221.79688 271.61084 220.42188Q272.73584 219.03125 274.8296 219.03125Q276.92334 219.03125 278.0171 220.40625Q279.12646 221.78125 279.1577 224.35938L279.1577 226.70312ZM276.61084 224.125Q276.61084 222.53125 276.17334 221.8125Q275.75146 221.07812 274.8296 221.07812Q273.92334 221.07812 273.50146 221.78125Q273.0796 222.46875 273.04834 223.9375L273.04834 227.04688Q273.04834 228.60938 273.4702 229.375Q273.9077 230.125 274.8452 230.125Q275.7671 230.125 276.17334 229.40625Q276.5952 228.67188 276.61084 227.17188L276.61084 224.125ZM280.50146 221.65625Q280.50146 220.48438 281.2671 219.75Q282.0327 219.01562 283.2827 219.01562Q284.5327 219.01562 285.29834 219.75Q286.06396 220.46875 286.06396 221.70312L286.06396 222.34375Q286.06396 223.53125 285.29834 224.25Q284.5327 224.96875 283.29834 224.96875Q282.04834 224.96875 281.2671 224.25Q280.50146 223.51562 280.50146 222.28125L280.50146 221.65625ZM282.18896 222.34375Q282.18896 222.875 282.48584 223.20312Q282.79834 223.51562 283.2827 223.51562Q283.7827 223.51562 284.06396 223.1875Q284.36084 222.85938 284.36084 222.3125L284.36084 221.65625Q284.36084 221.14062 284.06396 220.8125Q283.7827 220.48438 283.2827 220.48438Q282.79834 220.48438 282.48584 220.8125Q282.18896 221.125 282.18896 221.70312L282.18896 222.34375ZM286.62646 228.85938Q286.62646 227.67188 287.3921 226.95312Q288.17334 226.21875 289.4077 226.21875Q290.6577 226.21875 291.42334 226.9375Q292.18896 227.65625 292.18896 228.92188L292.18896 229.54688Q292.18896 230.71875 291.42334 231.45312Q290.67334 232.17188 289.42334 232.17188Q288.1577 232.17188 287.3921 231.45312Q286.62646 230.71875 286.62646 229.51562L286.62646 228.85938ZM288.31396 229.54688Q288.31396 230.03125 288.62646 230.375Q288.93896 230.71875 289.42334 230.71875Q290.48584 230.71875 290.48584 229.53125L290.48584 228.85938Q290.48584 228.32812 290.18896 228.01562Q289.8921 227.6875 289.3921 227.6875Q288.9077 227.6875 288.61084 228.01562Q288.31396 228.32812 288.31396 228.89062L288.31396 229.54688ZM283.79834 231.04688L282.56396 230.375L288.79834 220.375L290.04834 221.04688L283.79834 231.04688Z" fill-rule="nonzero"/><path stroke="#351c75" stroke-width="3.0" stroke-linejoin="round" stroke-linecap="round" d="M152.34021 295.0L149.79333 295.0L149.79333 285.20312L146.76208 286.15625L146.76208 284.07812L152.05896 282.1875L152.34021 282.1875L152.34021 295.0ZM156.40271 293.75Q156.40271 293.14062 156.80896 292.76562Q157.21521 292.39062 157.84021 292.39062Q158.46521 292.39062 158.87146 292.76562Q159.27771 293.14062 159.27771 293.75Q159.27771 294.34375 158.87146 294.71875Q158.46521 295.09375 157.84021 295.09375Q157.21521 295.09375 156.80896 294.71875Q156.40271 294.34375 156.40271 293.75ZM168.68396 290.1875L170.12146 290.1875L170.12146 292.23438L168.68396 292.23438L168.68396 295.0L166.13708 295.0L166.13708 292.23438L160.88708 292.23438L160.77771 290.625L166.10583 282.20312L168.68396 282.20312L168.68396 290.1875ZM163.30896 290.1875L166.13708 290.1875L166.13708 285.67188L165.96521 285.95312L163.30896 290.1875ZM179.77771 289.70312Q179.77771 292.35938 178.66833 293.76562Q177.57458 295.17188 175.46521 295.17188Q173.37146 295.17188 172.26208 293.79688Q171.15271 292.42188 171.12146 289.84375L171.12146 287.48438Q171.12146 284.79688 172.23083 283.42188Q173.35583 282.03125 175.44958 282.03125Q177.54333 282.03125 178.63708 283.40625Q179.74646 284.78125 179.77771 287.35938L179.77771 289.70312ZM177.23083 287.125Q177.23083 285.53125 176.79333 284.8125Q176.37146 284.07812 175.44958 284.07812Q174.54333 284.07812 174.12146 284.78125Q173.69958 285.46875 173.66833 286.9375L173.66833 290.04688Q173.66833 291.60938 174.09021 292.375Q174.52771 293.125 175.46521 293.125Q176.38708 293.125 176.79333 292.40625Q177.21521 291.67188 177.23083 290.17188L177.23083 287.125ZM181.12146 284.65625Q181.12146 283.48438 181.88708 282.75Q182.65271 282.01562 183.90271 282.01562Q185.15271 282.01562 185.91833 282.75Q186.68396 283.46875 186.68396 284.70312L186.68396 285.34375Q186.68396 286.53125 185.91833 287.25Q185.15271 287.96875 183.91833 287.96875Q182.66833 287.96875 181.88708 287.25Q181.12146 286.51562 181.12146 285.28125L181.12146 284.65625ZM182.80896 285.34375Q182.80896 285.875 183.10583 286.20312Q183.41833 286.51562 183.90271 286.51562Q184.40271 286.51562 184.68396 286.1875Q184.98083 285.85938 184.98083 285.3125L184.98083 284.65625Q184.98083 284.14062 184.68396 283.8125Q184.40271 283.48438 183.90271 283.48438Q183.41833 283.48438 183.10583 283.8125Q182.80896 284.125 182.80896 284.70312L182.80896 285.34375ZM187.24646 291.85938Q187.24646 290.67188 188.01208 289.95312Q188.79333 289.21875 190.02771 289.21875Q191.27771 289.21875 192.04333 289.9375Q192.80896 290.65625 192.80896 291.92188L192.80896 292.54688Q192.80896 293.71875 192.04333 294.45312Q191.29333 295.17188 190.04333 295.17188Q188.77771 295.17188 188.01208 294.45312Q187.24646 293.71875 187.24646 292.51562L187.24646 291.85938ZM188.93396 292.54688Q188.93396 293.03125 189.24646 293.375Q189.55896 293.71875 190.04333 293.71875Q191.10583 293.71875 191.10583 292.53125L191.10583 291.85938Q191.10583 291.32812 190.80896 291.01562Q190.51208 290.6875 190.01208 290.6875Q189.52771 290.6875 189.23083 291.01562Q188.93396 291.32812 188.93396 291.89062L188.93396 292.54688ZM184.41833 294.04688L183.18396 293.375L189.41833 283.375L190.66833 284.04688L184.41833 294.04688Z" fill-rule="nonzero"/><path fill="#ffffff" d="M152.34021 295.0L149.79333 295.0L149.79333 285.20312L146.76208 286.15625L146.76208 284.07812L152.05896 282.1875L152.34021 282.1875L152.34021 295.0ZM156.40271 293.75Q156.40271 293.14062 156.80896 292.76562Q157.21521 292.39062 157.84021 292.39062Q158.46521 292.39062 158.87146 292.76562Q159.27771 293.14062 159.27771 293.75Q159.27771 294.34375 158.87146 294.71875Q158.46521 295.09375 157.84021 295.09375Q157.21521 295.09375 156.80896 294.71875Q156.40271 294.34375 156.40271 293.75ZM168.68396 290.1875L170.12146 290.1875L170.12146 292.23438L168.68396 292.23438L168.68396 295.0L166.13708 295.0L166.13708 292.23438L160.88708 292.23438L160.77771 290.625L166.10583 282.20312L168.68396 282.20312L168.68396 290.1875ZM163.30896 290.1875L166.13708 290.1875L166.13708 285.67188L165.96521 285.95312L163.30896 290.1875ZM179.77771 289.70312Q179.77771 292.35938 178.66833 293.76562Q177.57458 295.17188 175.46521 295.17188Q173.37146 295.17188 172.26208 293.79688Q171.15271 292.42188 171.12146 289.84375L171.12146 287.48438Q171.12146 284.79688 172.23083 283.42188Q173.35583 282.03125 175.44958 282.03125Q177.54333 282.03125 178.63708 283.40625Q179.74646 284.78125 179.77771 287.35938L179.77771 289.70312ZM177.23083 287.125Q177.23083 285.53125 176.79333 284.8125Q176.37146 284.07812 175.44958 284.07812Q174.54333 284.07812 174.12146 284.78125Q173.69958 285.46875 173.66833 286.9375L173.66833 290.04688Q173.66833 291.60938 174.09021 292.375Q174.52771 293.125 175.46521 293.125Q176.38708 293.125 176.79333 292.40625Q177.21521 291.67188 177.23083 290.17188L177.23083 287.125ZM181.12146 284.65625Q181.12146 283.48438 181.88708 282.75Q182.65271 282.01562 183.90271 282.01562Q185.15271 282.01562 185.91833 282.75Q186.68396 283.46875 186.68396 284.70312L186.68396 285.34375Q186.68396 286.53125 185.91833 287.25Q185.15271 287.96875 183.91833 287.96875Q182.66833 287.96875 181.88708 287.25Q181.12146 286.51562 181.12146 285.28125L181.12146 284.65625ZM182.80896 285.34375Q182.80896 285.875 183.10583 286.20312Q183.41833 286.51562 183.90271 286.51562Q184.40271 286.51562 184.68396 286.1875Q184.98083 285.85938 184.98083 285.3125L184.98083 284.65625Q184.98083 284.14062 184.68396 283.8125Q184.40271 283.48438 183.90271 283.48438Q183.41833 283.48438 183.10583 283.8125Q182.80896 284.125 182.80896 284.70312L182.80896 285.34375ZM187.24646 291.85938Q187.24646 290.67188 188.01208 289.95312Q188.79333 289.21875 190.02771 289.21875Q191.27771 289.21875 192.04333 289.9375Q192.80896 290.65625 192.80896 291.92188L192.80896 292.54688Q192.80896 293.71875 192.04333 294.45312Q191.29333 295.17188 190.04333 295.17188Q188.77771 295.17188 188.01208 294.45312Q187.24646 293.71875 187.24646 292.51562L187.24646 291.85938ZM188.93396 292.54688Q188.93396 293.03125 189.24646 293.375Q189.55896 293.71875 190.04333 293.71875Q191.10583 293.71875 191.10583 292.53125L191.10583 291.85938Q191.10583 291.32812 190.80896 291.01562Q190.51208 290.6875 190.01208 290.6875Q189.52771 290.6875 189.23083 291.01562Q188.93396 291.32812 188.93396 291.89062L188.93396 292.54688ZM184.41833 294.04688L183.18396 293.375L189.41833 283.375L190.66833 284.04688L184.41833 294.04688Z" fill-rule="nonzero"/><path fill="#000000" d="M24.925 98.825935L26.596874 99.357185Q26.221874 100.763435 25.315624 101.450935Q24.409374 102.12281 23.034374 102.12281Q21.315624 102.12281 20.20625 100.96656Q19.1125 99.794685 19.1125 97.763435Q19.1125 95.62281 20.221874 94.43531Q21.33125 93.24781 23.14375 93.24781Q24.721874 93.24781 25.70625 94.169685Q26.284374 94.732185 26.58125 95.763435L24.8625 96.169685Q24.70625 95.49781 24.221874 95.12281Q23.7375 94.732185 23.05 94.732185Q22.096874 94.732185 21.503124 95.419685Q20.909374 96.09156 20.909374 97.638435Q20.909374 99.263435 21.4875 99.950935Q22.08125 100.638435 23.01875 100.638435Q23.70625 100.638435 24.20625 100.200935Q24.70625 99.763435 24.925 98.825935ZM28.64375 97.65406L27.14375 97.388435Q27.39375 96.482185 28.003124 96.06031Q28.628124 95.62281 29.846874 95.62281Q30.940624 95.62281 31.471874 95.888435Q32.01875 96.138435 32.2375 96.544685Q32.45625 96.93531 32.45625 98.013435L32.440624 99.93531Q32.440624 100.763435 32.51875 101.15406Q32.596874 101.52906 32.815624 101.982185L31.190624 101.982185Q31.128124 101.81031 31.034374 101.49781Q30.9875 101.34156 30.971874 101.294685Q30.55 101.71656 30.065624 101.919685Q29.596874 102.12281 29.05 102.12281Q28.08125 102.12281 27.51875 101.607185Q26.971874 101.075935 26.971874 100.27906Q26.971874 99.74781 27.221874 99.34156Q27.4875 98.93531 27.940624 98.71656Q28.39375 98.482185 29.253124 98.325935Q30.39375 98.107185 30.846874 97.919685L30.846874 97.763435Q30.846874 97.27906 30.6125 97.075935Q30.378124 96.87281 29.721874 96.87281Q29.284374 96.87281 29.034374 97.044685Q28.8 97.21656 28.64375 97.65406ZM30.846874 98.99781Q30.534374 99.09156 29.846874 99.24781Q29.159374 99.388435 28.940624 99.52906Q28.628124 99.763435 28.628124 100.107185Q28.628124 100.450935 28.878124 100.71656Q29.14375 100.96656 29.534374 100.96656Q29.9875 100.96656 30.39375 100.669685Q30.690624 100.450935 30.784374 100.12281Q30.846874 99.919685 30.846874 99.325935L30.846874 98.99781ZM38.503124 101.982185L38.503124 101.044685Q38.175 101.544685 37.6125 101.84156Q37.065624 102.12281 36.440624 102.12281Q35.815624 102.12281 35.315624 101.857185Q34.815624 101.575935 34.596874 101.075935Q34.378124 100.575935 34.378124 99.700935L34.378124 95.763435L36.01875 95.763435L36.01875 98.62281Q36.01875 99.93531 36.1125 100.232185Q36.20625 100.52906 36.440624 100.700935Q36.690624 100.87281 37.05 100.87281Q37.471874 100.87281 37.8 100.638435Q38.14375 100.40406 38.26875 100.06031Q38.39375 99.71656 38.39375 98.388435L38.39375 95.763435L40.034374 95.763435L40.034374 101.982185L38.503124 101.982185ZM46.83125 97.59156L45.221874 97.888435Q45.128124 97.40406 44.83125 97.169685Q44.55 96.919685 44.096874 96.919685Q43.471874 96.919685 43.096874 97.34156Q42.7375 97.763435 42.7375 98.763435Q42.7375 99.87281 43.1125 100.325935Q43.4875 100.77906 44.1125 100.77906Q44.58125 100.77906 44.878124 100.513435Q45.175 100.24781 45.3 99.59156L46.925 99.87281Q46.675 100.982185 45.95625 101.56031Q45.2375 102.12281 44.034374 102.12281Q42.675 102.12281 41.8625 101.263435Q41.05 100.40406 41.05 98.87281Q41.05 97.34156 41.8625 96.482185Q42.675 95.62281 44.065624 95.62281Q45.20625 95.62281 45.878124 96.107185Q46.55 96.59156 46.83125 97.59156ZM49.64375 97.65406L48.14375 97.388435Q48.39375 96.482185 49.003124 96.06031Q49.628124 95.62281 50.846874 95.62281Q51.940624 95.62281 52.471874 95.888435Q53.01875 96.138435 53.2375 96.544685Q53.45625 96.93531 53.45625 98.013435L53.440624 99.93531Q53.440624 100.763435 53.51875 101.15406Q53.596874 101.52906 53.815624 101.982185L52.190624 101.982185Q52.128124 101.81031 52.034374 101.49781Q51.9875 101.34156 51.971874 101.294685Q51.55 101.71656 51.065624 101.919685Q50.596874 102.12281 50.05 102.12281Q49.08125 102.12281 48.51875 101.607185Q47.971874 101.075935 47.971874 100.27906Q47.971874 99.74781 48.221874 99.34156Q48.4875 98.93531 48.940624 98.71656Q49.39375 98.482185 50.253124 98.325935Q51.39375 98.107185 51.846874 97.919685L51.846874 97.763435Q51.846874 97.27906 51.6125 97.075935Q51.378124 96.87281 50.721874 96.87281Q50.284374 96.87281 50.034374 97.044685Q49.8 97.21656 49.64375 97.65406ZM51.846874 98.99781Q51.534374 99.09156 50.846874 99.24781Q50.159374 99.388435 49.940624 99.52906Q49.628124 99.763435 49.628124 100.107185Q49.628124 100.450935 49.878124 100.71656Q50.14375 100.96656 50.534374 100.96656Q50.9875 100.96656 51.39375 100.669685Q51.690624 100.450935 51.784374 100.12281Q51.846874 99.919685 51.846874 99.325935L51.846874 98.99781ZM54.83125 100.200935L56.4875 99.950935Q56.596874 100.43531 56.909374 100.68531Q57.2375 100.93531 57.815624 100.93531Q58.45625 100.93531 58.76875 100.700935Q58.9875 100.52906 58.9875 100.263435Q58.9875 100.075935 58.878124 99.950935Q58.753124 99.825935 58.33125 99.732185Q56.33125 99.294685 55.8 98.93531Q55.065624 98.419685 55.065624 97.52906Q55.065624 96.71656 55.690624 96.169685Q56.33125 95.62281 57.675 95.62281Q58.95625 95.62281 59.58125 96.044685Q60.20625 96.450935 60.440624 97.263435L58.878124 97.544685Q58.784374 97.18531 58.503124 96.99781Q58.221874 96.794685 57.70625 96.794685Q57.065624 96.794685 56.784374 96.982185Q56.596874 97.107185 56.596874 97.31031Q56.596874 97.49781 56.753124 97.62281Q56.971874 97.77906 58.284374 98.075935Q59.6125 98.37281 60.128124 98.81031Q60.64375 99.24781 60.64375 100.02906Q60.64375 100.888435 59.925 101.513435Q59.221874 102.12281 57.815624 102.12281Q56.55 102.12281 55.8 101.607185Q55.065624 101.09156 54.83125 100.200935ZM62.409374 94.919685L62.409374 93.388435L64.06563 93.388435L64.06563 94.919685L62.409374 94.919685ZM62.409374 101.982185L62.409374 95.763435L64.06563 95.763435L64.06563 101.982185L62.409374 101.982185ZM66.64375 97.65406L65.14375 97.388435Q65.39375 96.482185 66.00313 96.06031Q66.62813 95.62281 67.84688 95.62281Q68.94063 95.62281 69.47188 95.888435Q70.01875 96.138435 70.2375 96.544685Q70.45625 96.93531 70.45625 98.013435L70.44063 99.93531Q70.44063 100.763435 70.51875 101.15406Q70.59688 101.52906 70.81563 101.982185L69.19063 101.982185Q69.12813 101.81031 69.03438 101.49781Q68.9875 101.34156 68.97188 101.294685Q68.55 101.71656 68.06563 101.919685Q67.59688 102.12281 67.05 102.12281Q66.08125 102.12281 65.51875 101.607185Q64.97188 101.075935 64.97188 100.27906Q64.97188 99.74781 65.22188 99.34156Q65.4875 98.93531 65.94063 98.71656Q66.39375 98.482185 67.25313 98.325935Q68.39375 98.107185 68.84688 97.919685L68.84688 97.763435Q68.84688 97.27906 68.6125 97.075935Q68.37813 96.87281 67.72188 96.87281Q67.28438 96.87281 67.03438 97.044685Q66.8 97.21656 66.64375 97.65406ZM68.84688 98.99781Q68.53438 99.09156 67.84688 99.24781Q67.15938 99.388435 66.94063 99.52906Q66.62813 99.763435 66.62813 100.107185Q66.62813 100.450935 66.87813 100.71656Q67.14375 100.96656 67.53438 100.96656Q67.9875 100.96656 68.39375 100.669685Q68.69063 100.450935 68.78438 100.12281Q68.84688 99.919685 68.84688 99.325935L68.84688 98.99781ZM78.06563 101.982185L76.425 101.982185L76.425 98.81031Q76.425 97.794685 76.31563 97.49781Q76.22188 97.200935 75.97188 97.044685Q75.7375 96.87281 75.40938 96.87281Q74.97188 96.87281 74.62813 97.107185Q74.3 97.34156 74.175 97.732185Q74.05 98.12281 74.05 99.169685L74.05 101.982185L72.39375 101.982185L72.39375 95.763435L73.925 95.763435L73.925 96.669685Q74.7375 95.62281 75.9875 95.62281Q76.51875 95.62281 76.97188 95.825935Q77.425 96.013435 77.65938 96.325935Q77.89375 96.62281 77.97188 97.013435Q78.06563 97.388435 78.06563 98.107185L78.06563 101.982185Z" fill-rule="nonzero"/><path fill="#000000" d="M55.175 165.78294L53.284374 165.78294L52.534374 163.82982L49.096874 163.82982L48.39375 165.78294L46.55 165.78294L49.89375 157.1892L51.7375 157.1892L55.175 165.78294ZM51.971874 162.3767L50.8 159.1892L49.628124 162.3767L51.971874 162.3767ZM54.83125 164.0017L56.4875 163.7517Q56.596874 164.23607 56.909374 164.48607Q57.2375 164.73607 57.815624 164.73607Q58.45625 164.73607 58.76875 164.5017Q58.9875 164.32982 58.9875 164.0642Q58.9875 163.8767 58.878124 163.7517Q58.753124 163.6267 58.33125 163.53294Q56.33125 163.09544 55.8 162.73607Q55.065624 162.22044 55.065624 161.32982Q55.065624 160.51732 55.690624 159.97044Q56.33125 159.42357 57.675 159.42357Q58.95625 159.42357 59.58125 159.84544Q60.20625 160.2517 60.440624 161.0642L58.878124 161.34544Q58.784374 160.98607 58.503124 160.79857Q58.221874 160.59544 57.70625 160.59544Q57.065624 160.59544 56.784374 160.78294Q56.596874 160.90794 56.596874 161.11107Q56.596874 161.29857 56.753124 161.42357Q56.971874 161.57982 58.284374 161.8767Q59.6125 162.17357 60.128124 162.61107Q60.64375 163.04857 60.64375 163.82982Q60.64375 164.6892 59.925 165.3142Q59.221874 165.92357 57.815624 165.92357Q56.55 165.92357 55.8 165.40794Q55.065624 164.89232 54.83125 164.0017ZM62.409374 158.72044L62.409374 157.1892L64.06563 157.1892L64.06563 158.72044L62.409374 158.72044ZM62.409374 165.78294L62.409374 159.5642L64.06563 159.5642L64.06563 165.78294L62.409374 165.78294ZM66.64375 161.45482L65.14375 161.1892Q65.39375 160.28294 66.00313 159.86107Q66.62813 159.42357 67.84688 159.42357Q68.94063 159.42357 69.47188 159.6892Q70.01875 159.9392 70.2375 160.34544Q70.45625 160.73607 70.45625 161.8142L70.44063 163.73607Q70.44063 164.5642 70.51875 164.95482Q70.59688 165.32982 70.81563 165.78294L69.19063 165.78294Q69.12813 165.61107 69.03438 165.29857Q68.9875 165.14232 68.97188 165.09544Q68.55 165.51732 68.06563 165.72044Q67.59688 165.92357 67.05 165.92357Q66.08125 165.92357 65.51875 165.40794Q64.97188 164.8767 64.97188 164.07982Q64.97188 163.54857 65.22188 163.14232Q65.4875 162.73607 65.94063 162.51732Q66.39375 162.28294 67.25313 162.1267Q68.39375 161.90794 68.84688 161.72044L68.84688 161.5642Q68.84688 161.07982 68.6125 160.8767Q68.37813 160.67357 67.72188 160.67357Q67.28438 160.67357 67.03438 160.84544Q66.8 161.01732 66.64375 161.45482ZM68.84688 162.79857Q68.53438 162.89232 67.84688 163.04857Q67.15938 163.1892 66.94063 163.32982Q66.62813 163.5642 66.62813 163.90794Q66.62813 164.2517 66.87813 164.51732Q67.14375 164.76732 67.53438 164.76732Q67.9875 164.76732 68.39375 164.47044Q68.69063 164.2517 68.78438 163.92357Q68.84688 163.72044 68.84688 163.1267L68.84688 162.79857ZM78.06563 165.78294L76.425 165.78294L76.425 162.61107Q76.425 161.59544 76.31563 161.29857Q76.22188 161.0017 75.97188 160.84544Q75.7375 160.67357 75.40938 160.67357Q74.97188 160.67357 74.62813 160.90794Q74.3 161.14232 74.175 161.53294Q74.05 161.92357 74.05 162.97044L74.05 165.78294L72.39375 165.78294L72.39375 159.5642L73.925 159.5642L73.925 160.47044Q74.7375 159.42357 75.9875 159.42357Q76.51875 159.42357 76.97188 159.6267Q77.425 159.8142 77.65938 160.1267Q77.89375 160.42357 77.97188 160.8142Q78.06563 161.1892 78.06563 161.90794L78.06563 165.78294Z" fill-rule="nonzero"/><path fill="#000000" d="M30.425 229.58371L30.425 220.98996L32.159374 220.98996L32.159374 224.38058L35.565624 224.38058L35.565624 220.98996L37.3 220.98996L37.3 229.58371L35.565624 229.58371L35.565624 225.83371L32.159374 225.83371L32.159374 229.58371L30.425 229.58371ZM38.409374 222.52121L38.409374 220.98996L40.065624 220.98996L40.065624 222.52121L38.409374 222.52121ZM38.409374 229.58371L38.409374 223.36496L40.065624 223.36496L40.065624 229.58371L38.409374 229.58371ZM40.83125 227.80246L42.4875 227.55246Q42.596874 228.03683 42.909374 228.28683Q43.2375 228.53683 43.815624 228.53683Q44.45625 228.53683 44.76875 228.30246Q44.9875 228.13058 44.9875 227.86496Q44.9875 227.67746 44.878124 227.55246Q44.753124 227.42746 44.33125 227.33371Q42.33125 226.89621 41.8 226.53683Q41.065624 226.02121 41.065624 225.13058Q41.065624 224.31808 41.690624 223.77121Q42.33125 223.22433 43.675 223.22433Q44.95625 223.22433 45.58125 223.64621Q46.20625 224.05246 46.440624 224.86496L44.878124 225.14621Q44.784374 224.78683 44.503124 224.59933Q44.221874 224.39621 43.70625 224.39621Q43.065624 224.39621 42.784374 224.58371Q42.596874 224.70871 42.596874 224.91183Q42.596874 225.09933 42.753124 225.22433Q42.971874 225.38058 44.284374 225.67746Q45.6125 225.97433 46.128124 226.41183Q46.64375 226.84933 46.64375 227.63058Q46.64375 228.48996 45.925 229.11496Q45.221874 229.72433 43.815624 229.72433Q42.55 229.72433 41.8 229.20871Q41.065624 228.69308 40.83125 227.80246ZM48.3625 223.36496L49.89375 223.36496L49.89375 224.27121Q50.20625 223.80246 50.70625 223.52121Q51.221874 223.22433 51.846874 223.22433Q52.925 223.22433 53.675 224.06808Q54.440624 224.91183 54.440624 226.44308Q54.440624 227.98996 53.675 228.86496Q52.909374 229.72433 51.83125 229.72433Q51.315624 229.72433 50.89375 229.52121Q50.471874 229.31808 50.01875 228.81808L50.01875 231.95871L48.3625 231.95871L48.3625 223.36496ZM49.9875 226.36496Q49.9875 227.41183 50.409374 227.91183Q50.83125 228.41183 51.425 228.41183Q52.003124 228.41183 52.378124 227.95871Q52.753124 227.48996 52.753124 226.44308Q52.753124 225.47433 52.3625 225.00558Q51.971874 224.52121 51.39375 224.52121Q50.784374 224.52121 50.378124 224.98996Q49.9875 225.45871 49.9875 226.36496ZM56.64375 225.25558L55.14375 224.98996Q55.39375 224.08371 56.003124 223.66183Q56.628124 223.22433 57.846874 223.22433Q58.940624 223.22433 59.471874 223.48996Q60.01875 223.73996 60.2375 224.14621Q60.45625 224.53683 60.45625 225.61496L60.440624 227.53683Q60.440624 228.36496 60.51875 228.75558Q60.596874 229.13058 60.815624 229.58371L59.190624 229.58371Q59.128124 229.41183 59.034374 229.09933Q58.9875 228.94308 58.971874 228.89621Q58.55 229.31808 58.065624 229.52121Q57.596874 229.72433 57.05 229.72433Q56.08125 229.72433 55.51875 229.20871Q54.971874 228.67746 54.971874 227.88058Q54.971874 227.34933 55.221874 226.94308Q55.4875 226.53683 55.940624 226.31808Q56.39375 226.08371 57.253124 225.92746Q58.39375 225.70871 58.846874 225.52121L58.846874 225.36496Q58.846874 224.88058 58.6125 224.67746Q58.378124 224.47433 57.721874 224.47433Q57.284374 224.47433 57.034374 224.64621Q56.8 224.81808 56.64375 225.25558ZM58.846874 226.59933Q58.534374 226.69308 57.846874 226.84933Q57.159374 226.98996 56.940624 227.13058Q56.628124 227.36496 56.628124 227.70871Q56.628124 228.05246 56.878124 228.31808Q57.14375 228.56808 57.534374 228.56808Q57.9875 228.56808 58.39375 228.27121Q58.690624 228.05246 58.784374 227.72433Q58.846874 227.52121 58.846874 226.92746L58.846874 226.59933ZM68.06563 229.58371L66.425 229.58371L66.425 226.41183Q66.425 225.39621 66.31563 225.09933Q66.22188 224.80246 65.97188 224.64621Q65.7375 224.47433 65.40938 224.47433Q64.97188 224.47433 64.62813 224.70871Q64.3 224.94308 64.175 225.33371Q64.05 225.72433 64.05 226.77121L64.05 229.58371L62.39375 229.58371L62.39375 223.36496L63.925 223.36496L63.925 224.27121Q64.7375 223.22433 65.9875 223.22433Q66.51875 223.22433 66.97188 223.42746Q67.425 223.61496 67.65938 223.92746Q67.89375 224.22433 67.97188 224.61496Q68.06563 224.98996 68.06563 225.70871L68.06563 229.58371ZM69.40938 222.52121L69.40938 220.98996L71.06563 220.98996L71.06563 222.52121L69.40938 222.52121ZM69.40938 229.58371L69.40938 223.36496L71.06563 223.36496L71.06563 229.58371L69.40938 229.58371ZM77.83125 225.19308L76.22188 225.48996Q76.12813 225.00558 75.83125 224.77121Q75.55 224.52121 75.09688 224.52121Q74.47188 224.52121 74.09688 224.94308Q73.7375 225.36496 73.7375 226.36496Q73.7375 227.47433 74.1125 227.92746Q74.4875 228.38058 75.1125 228.38058Q75.58125 228.38058 75.87813 228.11496Q76.175 227.84933 76.3 227.19308L77.925 227.47433Q77.675 228.58371 76.95625 229.16183Q76.2375 229.72433 75.03438 229.72433Q73.675 229.72433 72.8625 228.86496Q72.05 228.00558 72.05 226.47433Q72.05 224.94308 72.8625 224.08371Q73.675 223.22433 75.06563 223.22433Q76.20625 223.22433 76.87813 223.70871Q77.55 224.19308 77.83125 225.19308Z" fill-rule="nonzero"/><path fill="#000000" d="M47.425 284.79074L50.8625 284.79074Q51.878124 284.79074 52.378124 284.8845Q52.878124 284.96262 53.26875 285.24387Q53.675 285.5095 53.940624 285.96262Q54.20625 286.40012 54.20625 286.96262Q54.20625 287.55637 53.878124 288.072Q53.55 288.572 53.003124 288.822Q53.784374 289.04074 54.20625 289.60324Q54.628124 290.15012 54.628124 290.90012Q54.628124 291.47824 54.346874 292.04074Q54.08125 292.58762 53.6125 292.91574Q53.14375 293.24387 52.440624 293.322Q52.01875 293.36887 50.346874 293.3845L47.425 293.3845L47.425 284.79074ZM49.159374 286.22824L49.159374 288.21262L50.3 288.21262Q51.315624 288.21262 51.565624 288.18137Q52.003124 288.1345 52.253124 287.8845Q52.51875 287.61887 52.51875 287.197Q52.51875 286.80637 52.3 286.55637Q52.08125 286.30637 51.64375 286.2595Q51.378124 286.22824 50.159374 286.22824L49.159374 286.22824ZM49.159374 289.6345L49.159374 291.93137L50.76875 291.93137Q51.70625 291.93137 51.95625 291.8845Q52.346874 291.80637 52.58125 291.54074Q52.83125 291.27512 52.83125 290.80637Q52.83125 290.43137 52.64375 290.16574Q52.45625 289.8845 52.096874 289.7595Q51.753124 289.6345 50.565624 289.6345L49.159374 289.6345ZM55.409374 293.3845L55.409374 284.79074L57.065624 284.79074L57.065624 293.3845L55.409374 293.3845ZM59.64375 289.05637L58.14375 288.79074Q58.39375 287.8845 59.003124 287.46262Q59.628124 287.02512 60.846874 287.02512Q61.940624 287.02512 62.471874 287.29074Q63.01875 287.54074 63.2375 287.947Q63.45625 288.33762 63.45625 289.41574L63.440624 291.33762Q63.440624 292.16574 63.51875 292.55637Q63.596874 292.93137 63.815624 293.3845L62.190624 293.3845Q62.128124 293.21262 62.034374 292.90012Q61.9875 292.74387 61.971874 292.697Q61.55 293.11887 61.065624 293.322Q60.596874 293.52512 60.05 293.52512Q59.08125 293.52512 58.51875 293.0095Q57.971874 292.47824 57.971874 291.68137Q57.971874 291.15012 58.221874 290.74387Q58.4875 290.33762 58.940624 290.11887Q59.39375 289.8845 60.253124 289.72824Q61.39375 289.5095 61.846874 289.322L61.846874 289.16574Q61.846874 288.68137 61.6125 288.47824Q61.378124 288.27512 60.721874 288.27512Q60.284374 288.27512 60.034374 288.447Q59.8 288.61887 59.64375 289.05637ZM61.846874 290.40012Q61.534374 290.49387 60.846874 290.65012Q60.159374 290.79074 59.940624 290.93137Q59.628124 291.16574 59.628124 291.5095Q59.628124 291.85324 59.878124 292.11887Q60.14375 292.36887 60.534374 292.36887Q60.9875 292.36887 61.39375 292.072Q61.690624 291.85324 61.784374 291.52512Q61.846874 291.322 61.846874 290.72824L61.846874 290.40012ZM70.83125 288.99387L69.22188 289.29074Q69.12813 288.80637 68.83125 288.572Q68.55 288.322 68.09688 288.322Q67.47188 288.322 67.09688 288.74387Q66.7375 289.16574 66.7375 290.16574Q66.7375 291.27512 67.1125 291.72824Q67.4875 292.18137 68.1125 292.18137Q68.58125 292.18137 68.87813 291.91574Q69.175 291.65012 69.3 290.99387L70.925 291.27512Q70.675 292.3845 69.95625 292.96262Q69.2375 293.52512 68.03438 293.52512Q66.675 293.52512 65.8625 292.66574Q65.05 291.80637 65.05 290.27512Q65.05 288.74387 65.8625 287.8845Q66.675 287.02512 68.06563 287.02512Q69.20625 287.02512 69.87813 287.5095Q70.55 287.99387 70.83125 288.99387ZM72.34688 293.3845L72.34688 284.79074L74.00313 284.79074L74.00313 289.35324L75.925 287.16574L77.95625 287.16574L75.83125 289.43137L78.1125 293.3845L76.33125 293.3845L74.76875 290.58762L74.00313 291.3845L74.00313 293.3845L72.34688 293.3845Z" fill-rule="nonzero"/><path fill="#000000" d="M71.34688 340.825Q72.59688 340.825 73.3 341.71564Q74.12813 342.7625 74.12813 345.21564Q74.12813 347.65314 73.28438 348.71564Q72.59688 349.59064 71.34688 349.59064Q70.09688 349.59064 69.31563 348.6375Q68.55 347.66876 68.55 345.2Q68.55 342.7625 69.39375 341.7Q70.09688 340.825 71.34688 340.825ZM71.34688 342.1844Q71.05 342.1844 70.81563 342.3875Q70.58125 342.575 70.44063 343.0594Q70.28438 343.7 70.28438 345.21564Q70.28438 346.73126 70.425 347.29376Q70.58125 347.85626 70.81563 348.04376Q71.05 348.23126 71.34688 348.23126Q71.64375 348.23126 71.87813 348.04376Q72.1125 347.85626 72.2375 347.35626Q72.40938 346.73126 72.40938 345.21564Q72.40938 343.7 72.25313 343.1375Q72.1125 342.575 71.87813 342.3875Q71.64375 342.1844 71.34688 342.1844ZM75.90938 349.45L75.90938 347.8094L77.56563 347.8094L77.56563 349.45L75.90938 349.45ZM81.34688 340.825Q82.59688 340.825 83.3 341.71564Q84.12813 342.7625 84.12813 345.21564Q84.12813 347.65314 83.28438 348.71564Q82.59688 349.59064 81.34688 349.59064Q80.09688 349.59064 79.31563 348.6375Q78.55 347.66876 78.55 345.2Q78.55 342.7625 79.39375 341.7Q80.09688 340.825 81.34688 340.825ZM81.34688 342.1844Q81.05 342.1844 80.81563 342.3875Q80.58125 342.575 80.44063 343.0594Q80.28438 343.7 80.28438 345.21564Q80.28438 346.73126 80.425 347.29376Q80.58125 347.85626 80.81563 348.04376Q81.05 348.23126 81.34688 348.23126Q81.64375 348.23126 81.87813 348.04376Q82.1125 347.85626 82.2375 347.35626Q82.40938 346.73126 82.40938 345.21564Q82.40938 343.7 82.25313 343.1375Q82.1125 342.575 81.87813 342.3875Q81.64375 342.1844 81.34688 342.1844ZM88.34688 340.825Q89.59688 340.825 90.3 341.71564Q91.12813 342.7625 91.12813 345.21564Q91.12813 347.65314 90.28438 348.71564Q89.59688 349.59064 88.34688 349.59064Q87.09688 349.59064 86.31563 348.6375Q85.55 347.66876 85.55 345.2Q85.55 342.7625 86.39375 341.7Q87.09688 340.825 88.34688 340.825ZM88.34688 342.1844Q88.05 342.1844 87.81563 342.3875Q87.58125 342.575 87.44063 343.0594Q87.28438 343.7 87.28438 345.21564Q87.28438 346.73126 87.425 347.29376Q87.58125 347.85626 87.81563 348.04376Q88.05 348.23126 88.34688 348.23126Q88.64375 348.23126 88.87813 348.04376Q89.1125 347.85626 89.2375 347.35626Q89.40938 346.73126 89.40938 345.21564Q89.40938 343.7 89.25313 343.1375Q89.1125 342.575 88.87813 342.3875Q88.64375 342.1844 88.34688 342.1844ZM92.56563 342.98126Q92.56563 341.825 93.06563 341.27814Q93.58125 340.71564 94.45625 340.71564Q95.34688 340.71564 95.84688 341.27814Q96.3625 341.825 96.3625 342.98126Q96.3625 344.1375 95.84688 344.7Q95.34688 345.2469 94.4875 345.2469Q93.58125 345.2469 93.06563 344.7Q92.56563 344.1375 92.56563 342.98126ZM93.8625 342.96564Q93.8625 343.8094 94.05 344.09064Q94.19063 344.3094 94.45625 344.3094Q94.72188 344.3094 94.8625 344.09064Q95.05 343.8094 95.05 342.96564Q95.05 342.1375 94.8625 341.85626Q94.72188 341.6375 94.45625 341.6375Q94.19063 341.6375 94.05 341.84064Q93.8625 342.1375 93.8625 342.96564ZM95.70625 349.77814L94.4875 349.77814L99.06563 340.71564L100.25313 340.71564L95.70625 349.77814ZM98.3625 347.52814Q98.3625 346.3719 98.8625 345.8094Q99.37813 345.2469 100.25313 345.2469Q101.14375 345.2469 101.64375 345.8094Q102.15938 346.3719 102.15938 347.52814Q102.15938 348.6844 101.64375 349.2469Q101.14375 349.79376 100.28438 349.79376Q99.37813 349.79376 98.8625 349.2469Q98.3625 348.6844 98.3625 347.52814ZM99.64375 347.5125Q99.64375 348.35626 99.84688 348.6375Q99.9875 348.85626 100.25313 348.85626Q100.51875 348.85626 100.65938 348.6375Q100.84688 348.35626 100.84688 347.5125Q100.84688 346.6844 100.65938 346.3875Q100.51875 346.1844 100.25313 346.1844Q99.9875 346.1844 99.84688 346.3875Q99.64375 346.6844 99.64375 347.5125Z" fill-rule="nonzero"/><path fill="#000000" d="M239.76146 347.91876L239.76146 349.45L233.98021 349.45Q234.07396 348.575 234.54271 347.8094Q235.01146 347.02814 236.40208 345.7469Q237.51146 344.71564 237.76146 344.34064Q238.10521 343.825 238.10521 343.325Q238.10521 342.77814 237.80833 342.48126Q237.51146 342.1844 236.99583 342.1844Q236.48021 342.1844 236.16771 342.4969Q235.87083 342.8094 235.82396 343.52814L234.18333 343.3719Q234.32396 342.0125 235.08958 341.41876Q235.87083 340.825 237.02708 340.825Q238.30833 340.825 239.02708 341.5125Q239.76146 342.2 239.76146 343.21564Q239.76146 343.79376 239.54271 344.325Q239.33958 344.84064 238.88646 345.41876Q238.58958 345.79376 237.80833 346.5125Q237.02708 347.23126 236.82396 347.46564Q236.62083 347.7 236.48021 347.91876L239.76146 347.91876ZM241.54271 349.45L241.54271 347.8094L243.19896 347.8094L243.19896 349.45L241.54271 349.45ZM246.98021 340.825Q248.23021 340.825 248.93333 341.71564Q249.76146 342.7625 249.76146 345.21564Q249.76146 347.65314 248.91771 348.71564Q248.23021 349.59064 246.98021 349.59064Q245.73021 349.59064 244.94896 348.6375Q244.18333 347.66876 244.18333 345.2Q244.18333 342.7625 245.02708 341.7Q245.73021 340.825 246.98021 340.825ZM246.98021 342.1844Q246.68333 342.1844 246.44896 342.3875Q246.21458 342.575 246.07396 343.0594Q245.91771 343.7 245.91771 345.21564Q245.91771 346.73126 246.05833 347.29376Q246.21458 347.85626 246.44896 348.04376Q246.68333 348.23126 246.98021 348.23126Q247.27708 348.23126 247.51146 348.04376Q247.74583 347.85626 247.87083 347.35626Q248.04271 346.73126 248.04271 345.21564Q248.04271 343.7 247.88646 343.1375Q247.74583 342.575 247.51146 342.3875Q247.27708 342.1844 246.98021 342.1844ZM253.98021 340.825Q255.23021 340.825 255.93333 341.71564Q256.76147 342.7625 256.76147 345.21564Q256.76147 347.65314 255.91771 348.71564Q255.23021 349.59064 253.98021 349.59064Q252.73021 349.59064 251.94896 348.6375Q251.18333 347.66876 251.18333 345.2Q251.18333 342.7625 252.02708 341.7Q252.73021 340.825 253.98021 340.825ZM253.98021 342.1844Q253.68333 342.1844 253.44896 342.3875Q253.21458 342.575 253.07396 343.0594Q252.91771 343.7 252.91771 345.21564Q252.91771 346.73126 253.05833 347.29376Q253.21458 347.85626 253.44896 348.04376Q253.68333 348.23126 253.98021 348.23126Q254.27708 348.23126 254.51146 348.04376Q254.74583 347.85626 254.87083 347.35626Q255.04271 346.73126 255.04271 345.21564Q255.04271 343.7 254.88646 343.1375Q254.74583 342.575 254.51146 342.3875Q254.27708 342.1844 253.98021 342.1844ZM258.19897 342.98126Q258.19897 341.825 258.69897 341.27814Q259.2146 340.71564 260.0896 340.71564Q260.98022 340.71564 261.48022 341.27814Q261.99585 341.825 261.99585 342.98126Q261.99585 344.1375 261.48022 344.7Q260.98022 345.2469 260.12085 345.2469Q259.2146 345.2469 258.69897 344.7Q258.19897 344.1375 258.19897 342.98126ZM259.49585 342.96564Q259.49585 343.8094 259.68335 344.09064Q259.82397 344.3094 260.0896 344.3094Q260.35522 344.3094 260.49585 344.09064Q260.68335 343.8094 260.68335 342.96564Q260.68335 342.1375 260.49585 341.85626Q260.35522 341.6375 260.0896 341.6375Q259.82397 341.6375 259.68335 341.84064Q259.49585 342.1375 259.49585 342.96564ZM261.3396 349.77814L260.12085 349.77814L264.69897 340.71564L265.88647 340.71564L261.3396 349.77814ZM263.99585 347.52814Q263.99585 346.3719 264.49585 345.8094Q265.01147 345.2469 265.88647 345.2469Q266.7771 345.2469 267.2771 345.8094Q267.79272 346.3719 267.79272 347.52814Q267.79272 348.6844 267.2771 349.2469Q266.7771 349.79376 265.91772 349.79376Q265.01147 349.79376 264.49585 349.2469Q263.99585 348.6844 263.99585 347.52814ZM265.2771 347.5125Q265.2771 348.35626 265.48022 348.6375Q265.62085 348.85626 265.88647 348.85626Q266.1521 348.85626 266.29272 348.6375Q266.48022 348.35626 266.48022 347.5125Q266.48022 346.6844 266.29272 346.3875Q266.1521 346.1844 265.88647 346.1844Q265.62085 346.1844 265.48022 346.3875Q265.2771 346.6844 265.2771 347.5125Z" fill-rule="nonzero"/><path fill="#000000" d="M403.05106 349.45L403.05106 347.71564L399.53543 347.71564L399.53543 346.27814L403.2698 340.825L404.6448 340.825L404.6448 346.27814L405.72293 346.27814L405.72293 347.71564L404.6448 347.71564L404.6448 349.45L403.05106 349.45ZM403.05106 346.27814L403.05106 343.34064L401.0823 346.27814L403.05106 346.27814ZM407.17606 349.45L407.17606 347.8094L408.8323 347.8094L408.8323 349.45L407.17606 349.45ZM412.61356 340.825Q413.86356 340.825 414.56668 341.71564Q415.3948 342.7625 415.3948 345.21564Q415.3948 347.65314 414.55106 348.71564Q413.86356 349.59064 412.61356 349.59064Q411.36356 349.59064 410.5823 348.6375Q409.81668 347.66876 409.81668 345.2Q409.81668 342.7625 410.66043 341.7Q411.36356 340.825 412.61356 340.825ZM412.61356 342.1844Q412.31668 342.1844 412.0823 342.3875Q411.84793 342.575 411.7073 343.0594Q411.55106 343.7 411.55106 345.21564Q411.55106 346.73126 411.69168 347.29376Q411.84793 347.85626 412.0823 348.04376Q412.31668 348.23126 412.61356 348.23126Q412.91043 348.23126 413.1448 348.04376Q413.37918 347.85626 413.50418 347.35626Q413.67606 346.73126 413.67606 345.21564Q413.67606 343.7 413.5198 343.1375Q413.37918 342.575 413.1448 342.3875Q412.91043 342.1844 412.61356 342.1844ZM419.61356 340.825Q420.86356 340.825 421.56668 341.71564Q422.3948 342.7625 422.3948 345.21564Q422.3948 347.65314 421.55106 348.71564Q420.86356 349.59064 419.61356 349.59064Q418.36356 349.59064 417.5823 348.6375Q416.81668 347.66876 416.81668 345.2Q416.81668 342.7625 417.66043 341.7Q418.36356 340.825 419.61356 340.825ZM419.61356 342.1844Q419.31668 342.1844 419.0823 342.3875Q418.84793 342.575 418.7073 343.0594Q418.55106 343.7 418.55106 345.21564Q418.55106 346.73126 418.69168 347.29376Q418.84793 347.85626 419.0823 348.04376Q419.31668 348.23126 419.61356 348.23126Q419.91043 348.23126 420.1448 348.04376Q420.37918 347.85626 420.50418 347.35626Q420.67606 346.73126 420.67606 345.21564Q420.67606 343.7 420.5198 343.1375Q420.37918 342.575 420.1448 342.3875Q419.91043 342.1844 419.61356 342.1844ZM423.8323 342.98126Q423.8323 341.825 424.3323 341.27814Q424.84793 340.71564 425.72293 340.71564Q426.61356 340.71564 427.11356 341.27814Q427.62918 341.825 427.62918 342.98126Q427.62918 344.1375 427.11356 344.7Q426.61356 345.2469 425.75418 345.2469Q424.84793 345.2469 424.3323 344.7Q423.8323 344.1375 423.8323 342.98126ZM425.12918 342.96564Q425.12918 343.8094 425.31668 344.09064Q425.4573 344.3094 425.72293 344.3094Q425.98856 344.3094 426.12918 344.09064Q426.31668 343.8094 426.31668 342.96564Q426.31668 342.1375 426.12918 341.85626Q425.98856 341.6375 425.72293 341.6375Q425.4573 341.6375 425.31668 341.84064Q425.12918 342.1375 425.12918 342.96564ZM426.97293 349.77814L425.75418 349.77814L430.3323 340.71564L431.5198 340.71564L426.97293 349.77814ZM429.62918 347.52814Q429.62918 346.3719 430.12918 345.8094Q430.6448 345.2469 431.5198 345.2469Q432.41043 345.2469 432.91043 345.8094Q433.42606 346.3719 433.42606 347.52814Q433.42606 348.6844 432.91043 349.2469Q432.41043 349.79376 431.55106 349.79376Q430.6448 349.79376 430.12918 349.2469Q429.62918 348.6844 429.62918 347.52814ZM430.91043 347.5125Q430.91043 348.35626 431.11356 348.6375Q431.25418 348.85626 431.5198 348.85626Q431.78543 348.85626 431.92606 348.6375Q432.11356 348.35626 432.11356 347.5125Q432.11356 346.6844 431.92606 346.3875Q431.78543 346.1844 431.5198 346.1844Q431.25418 346.1844 431.11356 346.3875Q430.91043 346.6844 430.91043 347.5125Z" fill-rule="nonzero"/><path fill="#000000" d="M571.04376 342.96564L569.45 343.1375Q569.3875 342.65314 569.1375 342.41876Q568.8875 342.1844 568.4969 342.1844Q567.98126 342.1844 567.6219 342.65314Q567.2625 343.1219 567.16876 344.59064Q567.77814 343.8719 568.7 343.8719Q569.73126 343.8719 570.46564 344.65314Q571.2 345.4344 571.2 346.6844Q571.2 347.9969 570.41876 348.79376Q569.65314 349.59064 568.4344 349.59064Q567.1375 349.59064 566.29376 348.59064Q565.46564 347.575 565.46564 345.27814Q565.46564 342.90314 566.325 341.8719Q567.2 340.825 568.60626 340.825Q569.575 340.825 570.21564 341.3719Q570.85626 341.91876 571.04376 342.96564ZM567.3094 346.5594Q567.3094 347.35626 567.66876 347.79376Q568.04376 348.23126 568.5125 348.23126Q568.98126 348.23126 569.27814 347.8719Q569.59064 347.5125 569.59064 346.7Q569.59064 345.85626 569.2625 345.48126Q568.9344 345.09064 568.4344 345.09064Q567.96564 345.09064 567.6375 345.46564Q567.3094 345.825 567.3094 346.5594ZM572.8094 349.45L572.8094 347.8094L574.46564 347.8094L574.46564 349.45L572.8094 349.45ZM578.2469 340.825Q579.4969 340.825 580.2 341.71564Q581.02814 342.7625 581.02814 345.21564Q581.02814 347.65314 580.1844 348.71564Q579.4969 349.59064 578.2469 349.59064Q576.9969 349.59064 576.21564 348.6375Q575.45 347.66876 575.45 345.2Q575.45 342.7625 576.29376 341.7Q576.9969 340.825 578.2469 340.825ZM578.2469 342.1844Q577.95 342.1844 577.71564 342.3875Q577.48126 342.575 577.34064 343.0594Q577.1844 343.7 577.1844 345.21564Q577.1844 346.73126 577.325 347.29376Q577.48126 347.85626 577.71564 348.04376Q577.95 348.23126 578.2469 348.23126Q578.54376 348.23126 578.77814 348.04376Q579.0125 347.85626 579.1375 347.35626Q579.3094 346.73126 579.3094 345.21564Q579.3094 343.7 579.15314 343.1375Q579.0125 342.575 578.77814 342.3875Q578.54376 342.1844 578.2469 342.1844ZM585.2469 340.825Q586.4969 340.825 587.2 341.71564Q588.02814 342.7625 588.02814 345.21564Q588.02814 347.65314 587.1844 348.71564Q586.4969 349.59064 585.2469 349.59064Q583.9969 349.59064 583.21564 348.6375Q582.45 347.66876 582.45 345.2Q582.45 342.7625 583.29376 341.7Q583.9969 340.825 585.2469 340.825ZM585.2469 342.1844Q584.95 342.1844 584.71564 342.3875Q584.48126 342.575 584.34064 343.0594Q584.1844 343.7 584.1844 345.21564Q584.1844 346.73126 584.325 347.29376Q584.48126 347.85626 584.71564 348.04376Q584.95 348.23126 585.2469 348.23126Q585.54376 348.23126 585.77814 348.04376Q586.0125 347.85626 586.1375 347.35626Q586.3094 346.73126 586.3094 345.21564Q586.3094 343.7 586.15314 343.1375Q586.0125 342.575 585.77814 342.3875Q585.54376 342.1844 585.2469 342.1844ZM589.46564 342.98126Q589.46564 341.825 589.96564 341.27814Q590.48126 340.71564 591.35626 340.71564Q592.2469 340.71564 592.7469 341.27814Q593.2625 341.825 593.2625 342.98126Q593.2625 344.1375 592.7469 344.7Q592.2469 345.2469 591.3875 345.2469Q590.48126 345.2469 589.96564 344.7Q589.46564 344.1375 589.46564 342.98126ZM590.7625 342.96564Q590.7625 343.8094 590.95 344.09064Q591.09064 344.3094 591.35626 344.3094Q591.6219 344.3094 591.7625 344.09064Q591.95 343.8094 591.95 342.96564Q591.95 342.1375 591.7625 341.85626Q591.6219 341.6375 591.35626 341.6375Q591.09064 341.6375 590.95 341.84064Q590.7625 342.1375 590.7625 342.96564ZM592.60626 349.77814L591.3875 349.77814L595.96564 340.71564L597.15314 340.71564L592.60626 349.77814ZM595.2625 347.52814Q595.2625 346.3719 595.7625 345.8094Q596.27814 345.2469 597.15314 345.2469Q598.04376 345.2469 598.54376 345.8094Q599.0594 346.3719 599.0594 347.52814Q599.0594 348.6844 598.54376 349.2469Q598.04376 349.79376 597.1844 349.79376Q596.27814 349.79376 595.7625 349.2469Q595.2625 348.6844 595.2625 347.52814ZM596.54376 347.5125Q596.54376 348.35626 596.7469 348.6375Q596.8875 348.85626 597.15314 348.85626Q597.41876 348.85626 597.5594 348.6375Q597.7469 348.35626 597.7469 347.5125Q597.7469 346.6844 597.5594 346.3875Q597.41876 346.1844 597.15314 346.1844Q596.8875 346.1844 596.7469 346.3875Q596.54376 346.6844 596.54376 347.5125Z" fill-rule="nonzero"/><path fill="#434343" d="M20.096874 37.55L20.096874 23.2375L25.4875 23.2375Q26.925 23.2375 27.675 23.3625Q28.721874 23.55 29.440624 24.05Q30.159374 24.534374 30.58125 25.425Q31.01875 26.315624 31.01875 27.378124Q31.01875 29.20625 29.846874 30.471874Q28.690624 31.721874 25.659374 31.721874L21.9875 31.721874L21.9875 37.55L20.096874 37.55ZM21.9875 30.034374L25.690624 30.034374Q27.51875 30.034374 28.284374 29.3625Q29.065624 28.675 29.065624 27.425Q29.065624 26.534374 28.6125 25.89375Q28.159374 25.253124 27.425 25.05Q26.940624 24.925 25.64375 24.925L21.9875 24.925L21.9875 30.034374ZM32.846874 37.55L32.846874 27.175L34.425 27.175L34.425 28.753124Q35.034374 27.64375 35.55 27.3Q36.065624 26.940624 36.675 26.940624Q37.565624 26.940624 38.4875 27.503124L37.878124 29.14375Q37.2375 28.753124 36.596874 28.753124Q36.01875 28.753124 35.55 29.1125Q35.096874 29.45625 34.89375 30.065624Q34.6125 31.003124 34.6125 32.1125L34.6125 37.55L32.846874 37.55ZM46.971874 34.20625L48.784374 34.440624Q48.3625 36.01875 47.190624 36.909374Q46.034374 37.784374 44.221874 37.784374Q41.95625 37.784374 40.6125 36.39375Q39.284374 34.9875 39.284374 32.45625Q39.284374 29.83125 40.628124 28.39375Q41.971874 26.940624 44.128124 26.940624Q46.20625 26.940624 47.51875 28.3625Q48.846874 29.76875 48.846874 32.346874Q48.846874 32.503124 48.83125 32.815624L41.096874 32.815624Q41.190624 34.51875 42.065624 35.425Q42.940624 36.33125 44.2375 36.33125Q45.20625 36.33125 45.878124 35.83125Q46.565624 35.315624 46.971874 34.20625ZM41.190624 31.3625L46.9875 31.3625Q46.878124 30.065624 46.33125 29.409374Q45.4875 28.39375 44.14375 28.39375Q42.940624 28.39375 42.1125 29.20625Q41.284374 30.003124 41.190624 31.3625ZM53.753124 37.55L49.8 27.175L51.659374 27.175L53.89375 33.39375Q54.253124 34.39375 54.55 35.471874Q54.784374 34.659374 55.20625 33.503124L57.503124 27.175L59.315624 27.175L55.39375 37.55L53.753124 37.55ZM66.64375 36.26875Q65.65938 37.096874 64.75313 37.440624Q63.846874 37.784374 62.815624 37.784374Q61.1125 37.784374 60.190624 36.95625Q59.26875 36.1125 59.26875 34.815624Q59.26875 34.05 59.6125 33.425Q59.971874 32.8 60.534374 32.425Q61.096874 32.034374 61.8 31.83125Q62.315624 31.70625 63.3625 31.565624Q65.4875 31.315624 66.4875 30.971874Q66.50313 30.6125 66.50313 30.503124Q66.50313 29.440624 66.00313 28.9875Q65.33125 28.39375 64.00313 28.39375Q62.753124 28.39375 62.159374 28.83125Q61.58125 29.26875 61.3 30.378124L59.58125 30.14375Q59.815624 29.034374 60.346874 28.3625Q60.878124 27.675 61.89375 27.315624Q62.909374 26.940624 64.25313 26.940624Q65.58125 26.940624 66.40938 27.253124Q67.2375 27.565624 67.62813 28.05Q68.01875 28.51875 68.175 29.2375Q68.26875 29.690624 68.26875 30.8625L68.26875 33.20625Q68.26875 35.659374 68.37813 36.315624Q68.4875 36.95625 68.83125 37.55L66.9875 37.55Q66.72188 37.003124 66.64375 36.26875ZM66.4875 32.346874Q65.53438 32.7375 63.6125 33.003124Q62.534374 33.159374 62.08125 33.3625Q61.64375 33.55 61.39375 33.925Q61.14375 34.3 61.14375 34.76875Q61.14375 35.471874 61.675 35.940624Q62.20625 36.409374 63.2375 36.409374Q64.25313 36.409374 65.03438 35.971874Q65.83125 35.51875 66.20625 34.753124Q66.4875 34.14375 66.4875 32.9875L66.4875 32.346874ZM70.83125 37.55L70.83125 23.2375L72.58125 23.2375L72.58125 37.55L70.83125 37.55ZM81.97188 34.20625L83.78438 34.440624Q83.3625 36.01875 82.19063 36.909374Q81.03438 37.784374 79.22188 37.784374Q76.95625 37.784374 75.6125 36.39375Q74.28438 34.9875 74.28438 32.45625Q74.28438 29.83125 75.62813 28.39375Q76.97188 26.940624 79.12813 26.940624Q81.20625 26.940624 82.51875 28.3625Q83.84688 29.76875 83.84688 32.346874Q83.84688 32.503124 83.83125 32.815624L76.09688 32.815624Q76.19063 34.51875 77.06563 35.425Q77.94063 36.33125 79.2375 36.33125Q80.20625 36.33125 80.87813 35.83125Q81.56563 35.315624 81.97188 34.20625ZM76.19063 31.3625L81.9875 31.3625Q81.87813 30.065624 81.33125 29.409374Q80.4875 28.39375 79.14375 28.39375Q77.94063 28.39375 77.1125 29.20625Q76.28438 30.003124 76.19063 31.3625ZM85.8625 37.55L85.8625 27.175L87.45625 27.175L87.45625 28.659374Q88.59688 26.940624 90.75313 26.940624Q91.69063 26.940624 92.47188 27.284374Q93.26875 27.6125 93.65938 28.159374Q94.05 28.70625 94.20625 29.45625Q94.3 29.95625 94.3 31.175L94.3 37.55L92.53438 37.55L92.53438 31.2375Q92.53438 30.159374 92.33125 29.628124Q92.12813 29.096874 91.59688 28.784374Q91.08125 28.471874 90.37813 28.471874Q89.25313 28.471874 88.44063 29.190624Q87.62813 29.89375 87.62813 31.878124L87.62813 37.55L85.8625 37.55ZM102.64375 33.753124L104.3625 33.971874Q104.08125 35.76875 102.90938 36.784374Q101.75313 37.784374 100.05 37.784374Q97.925 37.784374 96.62813 36.39375Q95.33125 35.003124 95.33125 32.409374Q95.33125 30.721874 95.87813 29.471874Q96.44063 28.20625 97.58125 27.58125Q98.72188 26.940624 100.06563 26.940624Q101.75313 26.940624 102.81563 27.8Q103.89375 28.659374 104.20625 30.221874L102.4875 30.4875Q102.25313 29.440624 101.62813 28.925Q101.00313 28.39375 100.12813 28.39375Q98.8 28.39375 97.97188 29.346874Q97.14375 30.3 97.14375 32.346874Q97.14375 34.440624 97.94063 35.39375Q98.7375 36.33125 100.03438 36.33125Q101.06563 36.33125 101.75313 35.70625Q102.45625 35.065624 102.64375 33.753124ZM112.97188 34.20625L114.78438 34.440624Q114.3625 36.01875 113.19063 36.909374Q112.03438 37.784374 110.22188 37.784374Q107.95625 37.784374 106.6125 36.39375Q105.28438 34.9875 105.28438 32.45625Q105.28438 29.83125 106.62813 28.39375Q107.97188 26.940624 110.12813 26.940624Q112.20625 26.940624 113.51875 28.3625Q114.84688 29.76875 114.84688 32.346874Q114.84688 32.503124 114.83125 32.815624L107.09688 32.815624Q107.19063 34.51875 108.06563 35.425Q108.94063 36.33125 110.2375 36.33125Q111.20625 36.33125 111.87813 35.83125Q112.56563 35.315624 112.97188 34.20625ZM107.19063 31.3625L112.9875 31.3625Q112.87813 30.065624 112.33125 29.409374Q111.4875 28.39375 110.14375 28.39375Q108.94063 28.39375 108.1125 29.20625Q107.28438 30.003124 107.19063 31.3625ZM122.22188 32.3625Q122.22188 29.4875 123.81563 28.096874Q125.15938 26.940624 127.08125 26.940624Q129.22188 26.940624 130.56563 28.346874Q131.925 29.753124 131.925 32.221874Q131.925 34.221874 131.33125 35.378124Q130.7375 36.51875 129.58125 37.159374Q128.44063 37.784374 127.08125 37.784374Q124.89375 37.784374 123.55 36.39375Q122.22188 34.9875 122.22188 32.3625ZM124.01875 32.3625Q124.01875 34.3625 124.87813 35.346874Q125.75313 36.33125 127.08125 36.33125Q128.39375 36.33125 129.25313 35.346874Q130.12813 34.346874 130.12813 32.3Q130.12813 30.378124 129.25313 29.39375Q128.37813 28.39375 127.08125 28.39375Q125.75313 28.39375 124.87813 29.39375Q124.01875 30.378124 124.01875 32.3625ZM134.28438 37.55L134.28438 28.55L132.7375 28.55L132.7375 27.175L134.28438 27.175L134.28438 26.08125Q134.28438 25.034374 134.47188 24.51875Q134.72188 23.83125 135.3625 23.409374Q136.00313 22.9875 137.15938 22.9875Q137.90938 22.9875 138.8 23.159374L138.53438 24.690624Q137.9875 24.596874 137.50313 24.596874Q136.70625 24.596874 136.3625 24.940624Q136.03438 25.284374 136.03438 26.221874L136.03438 27.175L138.06563 27.175L138.06563 28.55L136.03438 28.55L136.03438 37.55L134.28438 37.55ZM156.31563 32.534374L158.20625 33.003124Q157.6125 35.346874 156.06563 36.58125Q154.51875 37.8 152.26875 37.8Q149.95625 37.8 148.50313 36.8625Q147.06563 35.909374 146.3 34.128124Q145.55 32.33125 145.55 30.284374Q145.55 28.05 146.39375 26.39375Q147.25313 24.721874 148.83125 23.8625Q150.40938 22.9875 152.3 22.9875Q154.45625 22.9875 155.90938 24.08125Q157.37813 25.175 157.95625 27.159374L156.09688 27.596874Q155.59688 26.034374 154.64375 25.33125Q153.70625 24.6125 152.26875 24.6125Q150.6125 24.6125 149.50313 25.409374Q148.39375 26.190624 147.94063 27.534374Q147.50313 28.8625 147.50313 30.26875Q147.50313 32.096874 148.03438 33.471874Q148.56563 34.83125 149.69063 35.503124Q150.81563 36.175 152.1125 36.175Q153.70625 36.175 154.81563 35.253124Q155.925 34.33125 156.31563 32.534374ZM159.22188 32.3625Q159.22188 29.4875 160.81563 28.096874Q162.15938 26.940624 164.08125 26.940624Q166.22188 26.940624 167.56563 28.346874Q168.925 29.753124 168.925 32.221874Q168.925 34.221874 168.33125 35.378124Q167.7375 36.51875 166.58125 37.159374Q165.44063 37.784374 164.08125 37.784374Q161.89375 37.784374 160.55 36.39375Q159.22188 34.9875 159.22188 32.3625ZM161.01875 32.3625Q161.01875 34.3625 161.87813 35.346874Q162.75313 36.33125 164.08125 36.33125Q165.39375 36.33125 166.25313 35.346874Q167.12813 34.346874 167.12813 32.3Q167.12813 30.378124 166.25313 29.39375Q165.37813 28.39375 164.08125 28.39375Q162.75313 28.39375 161.87813 29.39375Q161.01875 30.378124 161.01875 32.3625ZM170.83125 37.55L170.83125 23.2375L172.58125 23.2375L172.58125 37.55L170.83125 37.55ZM174.22188 32.3625Q174.22188 29.4875 175.81563 28.096874Q177.15938 26.940624 179.08125 26.940624Q181.22188 26.940624 182.56563 28.346874Q183.925 29.753124 183.925 32.221874Q183.925 34.221874 183.33125 35.378124Q182.7375 36.51875 181.58125 37.159374Q180.44063 37.784374 179.08125 37.784374Q176.89375 37.784374 175.55 36.39375Q174.22188 34.9875 174.22188 32.3625ZM176.01875 32.3625Q176.01875 34.3625 176.87813 35.346874Q177.75313 36.33125 179.08125 36.33125Q180.39375 36.33125 181.25313 35.346874Q182.12813 34.346874 182.12813 32.3Q182.12813 30.378124 181.25313 29.39375Q180.37813 28.39375 179.08125 28.39375Q177.75313 28.39375 176.87813 29.39375Q176.01875 30.378124 176.01875 32.3625ZM185.84688 37.55L185.84688 27.175L187.425 27.175L187.425 28.753124Q188.03438 27.64375 188.55 27.3Q189.06563 26.940624 189.675 26.940624Q190.56563 26.940624 191.4875 27.503124L190.87813 29.14375Q190.2375 28.753124 189.59688 28.753124Q189.01875 28.753124 188.55 29.1125Q188.09688 29.45625 187.89375 30.065624Q187.6125 31.003124 187.6125 32.1125L187.6125 37.55L185.84688 37.55ZM203.19063 37.55L197.64375 23.2375L199.69063 23.2375L203.40938 33.628124Q203.8625 34.878124 204.15938 35.971874Q204.4875 34.8 204.94063 33.628124L208.8 23.2375L210.7375 23.2375L205.12813 37.55L203.19063 37.55ZM211.87813 25.253124L211.87813 23.2375L213.64375 23.2375L213.64375 25.253124L211.87813 25.253124ZM211.87813 37.55L211.87813 27.175L213.64375 27.175L213.64375 37.55L211.87813 37.55ZM215.15938 34.45625L216.90938 34.175Q217.05 35.221874 217.72188 35.784374Q218.39375 36.33125 219.59688 36.33125Q220.8 36.33125 221.37813 35.846874Q221.97188 35.346874 221.97188 34.690624Q221.97188 34.096874 221.45625 33.753124Q221.09688 33.51875 219.65938 33.159374Q217.72188 32.659374 216.97188 32.315624Q216.2375 31.95625 215.84688 31.33125Q215.45625 30.690624 215.45625 29.925Q215.45625 29.2375 215.76875 28.64375Q216.09688 28.05 216.64375 27.659374Q217.05 27.3625 217.75313 27.159374Q218.47188 26.940624 219.28438 26.940624Q220.50313 26.940624 221.425 27.3Q222.34688 27.64375 222.78438 28.253124Q223.22188 28.846874 223.39375 29.846874L221.675 30.08125Q221.55 29.284374 220.9875 28.846874Q220.425 28.39375 219.40938 28.39375Q218.19063 28.39375 217.675 28.8Q217.15938 29.190624 217.15938 29.721874Q217.15938 30.065624 217.37813 30.346874Q217.58125 30.628124 218.05 30.815624Q218.31563 30.909374 219.59688 31.253124Q221.47188 31.753124 222.20625 32.08125Q222.94063 32.39375 223.3625 33.003124Q223.78438 33.596874 223.78438 34.503124Q223.78438 35.378124 223.26875 36.159374Q222.75313 36.940624 221.78438 37.3625Q220.81563 37.784374 219.59688 37.784374Q217.58125 37.784374 216.51875 36.940624Q215.45625 36.096874 215.15938 34.45625ZM225.87813 25.253124L225.87813 23.2375L227.64375 23.2375L227.64375 25.253124L225.87813 25.253124ZM225.87813 37.55L225.87813 27.175L227.64375 27.175L227.64375 37.55L225.87813 37.55ZM229.22188 32.3625Q229.22188 29.4875 230.81563 28.096874Q232.15938 26.940624 234.08125 26.940624Q236.22188 26.940624 237.56563 28.346874Q238.925 29.753124 238.925 32.221874Q238.925 34.221874 238.33125 35.378124Q237.7375 36.51875 236.58125 37.159374Q235.44063 37.784374 234.08125 37.784374Q231.89375 37.784374 230.55 36.39375Q229.22188 34.9875 229.22188 32.3625ZM231.01875 32.3625Q231.01875 34.3625 231.87813 35.346874Q232.75313 36.33125 234.08125 36.33125Q235.39375 36.33125 236.25313 35.346874Q237.12813 34.346874 237.12813 32.3Q237.12813 30.378124 236.25313 29.39375Q235.37813 28.39375 234.08125 28.39375Q232.75313 28.39375 231.87813 29.39375Q231.01875 30.378124 231.01875 32.3625ZM240.8625 37.55L240.8625 27.175L242.45625 27.175L242.45625 28.659374Q243.59688 26.940624 245.75313 26.940624Q246.69063 26.940624 247.47188 27.284374Q248.26875 27.6125 248.65938 28.159374Q249.05 28.70625 249.20625 29.45625Q249.3 29.95625 249.3 31.175L249.3 37.55L247.53438 37.55L247.53438 31.2375Q247.53438 30.159374 247.33125 29.628124Q247.12813 29.096874 246.59688 28.784374Q246.08125 28.471874 245.37813 28.471874Q244.25313 28.471874 243.44063 29.190624Q242.62813 29.89375 242.62813 31.878124L242.62813 37.55L240.8625 37.55ZM257.09686 37.55L257.09686 23.2375L262.01874 23.2375Q263.6906 23.2375 264.58124 23.440624Q265.8 23.721874 266.675 24.45625Q267.8 25.425 268.3625 26.909374Q268.925 28.39375 268.925 30.315624Q268.925 31.940624 268.55 33.20625Q268.175 34.45625 267.5656 35.284374Q266.97186 36.1125 266.26874 36.596874Q265.5656 37.065624 264.5656 37.315624Q263.5656 37.55 262.2531 37.55L257.09686 37.55ZM258.9875 35.8625L262.05 35.8625Q263.45624 35.8625 264.2531 35.596874Q265.0656 35.33125 265.55 34.846874Q266.22186 34.175 266.59686 33.05Q266.97186 31.909374 266.97186 30.284374Q266.97186 28.034374 266.2375 26.83125Q265.5031 25.628124 264.4406 25.221874Q263.6906 24.925 262.0031 24.925L258.9875 24.925L258.9875 35.8625ZM277.97186 34.20625L279.78436 34.440624Q279.3625 36.01875 278.1906 36.909374Q277.03436 37.784374 275.22186 37.784374Q272.95624 37.784374 271.6125 36.39375Q270.28436 34.9875 270.28436 32.45625Q270.28436 29.83125 271.6281 28.39375Q272.97186 26.940624 275.1281 26.940624Q277.20624 26.940624 278.51874 28.3625Q279.84686 29.76875 279.84686 32.346874Q279.84686 32.503124 279.83124 32.815624L272.09686 32.815624Q272.1906 34.51875 273.0656 35.425Q273.9406 36.33125 275.2375 36.33125Q276.20624 36.33125 276.8781 35.83125Q277.5656 35.315624 277.97186 34.20625ZM272.1906 31.3625L277.9875 31.3625Q277.8781 30.065624 277.33124 29.409374Q276.4875 28.39375 275.14374 28.39375Q273.9406 28.39375 273.1125 29.20625Q272.28436 30.003124 272.1906 31.3625ZM282.28436 37.55L282.28436 28.55L280.7375 28.55L280.7375 27.175L282.28436 27.175L282.28436 26.08125Q282.28436 25.034374 282.47186 24.51875Q282.72186 23.83125 283.3625 23.409374Q284.0031 22.9875 285.15936 22.9875Q285.90936 22.9875 286.8 23.159374L286.53436 24.690624Q285.9875 24.596874 285.5031 24.596874Q284.70624 24.596874 284.3625 24.940624Q284.03436 25.284374 284.03436 26.221874L284.03436 27.175L286.0656 27.175L286.0656 28.55L284.03436 28.55L284.03436 37.55L282.28436 37.55ZM287.8781 25.253124L287.8781 23.2375L289.64374 23.2375L289.64374 25.253124L287.8781 25.253124ZM287.8781 37.55L287.8781 27.175L289.64374 27.175L289.64374 37.55L287.8781 37.55ZM298.64374 33.753124L300.3625 33.971874Q300.08124 35.76875 298.90936 36.784374Q297.7531 37.784374 296.05 37.784374Q293.925 37.784374 292.6281 36.39375Q291.33124 35.003124 291.33124 32.409374Q291.33124 30.721874 291.8781 29.471874Q292.4406 28.20625 293.58124 27.58125Q294.72186 26.940624 296.0656 26.940624Q297.7531 26.940624 298.8156 27.8Q299.89374 28.659374 300.20624 30.221874L298.4875 30.4875Q298.2531 29.440624 297.6281 28.925Q297.0031 28.39375 296.1281 28.39375Q294.8 28.39375 293.97186 29.346874Q293.14374 30.3 293.14374 32.346874Q293.14374 34.440624 293.9406 35.39375Q294.7375 36.33125 296.03436 36.33125Q297.0656 36.33125 297.7531 35.70625Q298.45624 35.065624 298.64374 33.753124ZM301.8781 25.253124L301.8781 23.2375L303.64374 23.2375L303.64374 25.253124L301.8781 25.253124ZM301.8781 37.55L301.8781 27.175L303.64374 27.175L303.64374 37.55L301.8781 37.55ZM312.97186 34.20625L314.78436 34.440624Q314.3625 36.01875 313.1906 36.909374Q312.03436 37.784374 310.22186 37.784374Q307.95624 37.784374 306.6125 36.39375Q305.28436 34.9875 305.28436 32.45625Q305.28436 29.83125 306.6281 28.39375Q307.97186 26.940624 310.1281 26.940624Q312.20624 26.940624 313.51874 28.3625Q314.84686 29.76875 314.84686 32.346874Q314.84686 32.503124 314.83124 32.815624L307.09686 32.815624Q307.1906 34.51875 308.0656 35.425Q308.9406 36.33125 310.2375 36.33125Q311.20624 36.33125 311.8781 35.83125Q312.5656 35.315624 312.97186 34.20625ZM307.1906 31.3625L312.9875 31.3625Q312.8781 30.065624 312.33124 29.409374Q311.4875 28.39375 310.14374 28.39375Q308.9406 28.39375 308.1125 29.20625Q307.28436 30.003124 307.1906 31.3625ZM316.8625 37.55L316.8625 27.175L318.45624 27.175L318.45624 28.659374Q319.59686 26.940624 321.7531 26.940624Q322.6906 26.940624 323.47186 27.284374Q324.26874 27.6125 324.65936 28.159374Q325.05 28.70625 325.20624 29.45625Q325.3 29.95625 325.3 31.175L325.3 37.55L323.53436 37.55L323.53436 31.2375Q323.53436 30.159374 323.33124 29.628124Q323.1281 29.096874 322.59686 28.784374Q322.08124 28.471874 321.3781 28.471874Q320.2531 28.471874 319.4406 29.190624Q318.6281 29.89375 318.6281 31.878124L318.6281 37.55L316.8625 37.55ZM333.64374 33.753124L335.3625 33.971874Q335.08124 35.76875 333.90936 36.784374Q332.7531 37.784374 331.05 37.784374Q328.925 37.784374 327.6281 36.39375Q326.33124 35.003124 326.33124 32.409374Q326.33124 30.721874 326.8781 29.471874Q327.4406 28.20625 328.58124 27.58125Q329.72186 26.940624 331.0656 26.940624Q332.7531 26.940624 333.8156 27.8Q334.89374 28.659374 335.20624 30.221874L333.4875 30.4875Q333.2531 29.440624 332.6281 28.925Q332.0031 28.39375 331.1281 28.39375Q329.8 28.39375 328.97186 29.346874Q328.14374 30.3 328.14374 32.346874Q328.14374 34.440624 328.9406 35.39375Q329.7375 36.33125 331.03436 36.33125Q332.0656 36.33125 332.7531 35.70625Q333.45624 35.065624 333.64374 33.753124ZM336.78436 41.55L336.59686 39.89375Q337.175 40.05 337.59686 40.05Q338.1906 40.05 338.53436 39.846874Q338.89374 39.659374 339.1125 39.315624Q339.28436 39.05 339.65936 38.003124Q339.70624 37.846874 339.8156 37.565624L335.8781 27.175L337.76874 27.175L339.925 33.190624Q340.34686 34.33125 340.675 35.58125Q340.9875 34.378124 341.39374 33.221874L343.6125 27.175L345.3781 27.175L341.425 37.721874Q340.8 39.440624 340.4406 40.08125Q339.97186 40.95625 339.3625 41.346874Q338.76874 41.753124 337.925 41.753124Q337.40936 41.753124 336.78436 41.55ZM352.8781 25.253124L352.8781 23.2375L354.64374 23.2375L354.64374 25.253124L352.8781 25.253124ZM352.8781 37.55L352.8781 27.175L354.64374 27.175L354.64374 37.55L352.8781 37.55ZM356.8625 37.55L356.8625 27.175L358.45624 27.175L358.45624 28.659374Q359.59686 26.940624 361.7531 26.940624Q362.6906 26.940624 363.47186 27.284374Q364.26874 27.6125 364.65936 28.159374Q365.05 28.70625 365.20624 29.45625Q365.3 29.95625 365.3 31.175L365.3 37.55L363.53436 37.55L363.53436 31.2375Q363.53436 30.159374 363.33124 29.628124Q363.1281 29.096874 362.59686 28.784374Q362.08124 28.471874 361.3781 28.471874Q360.2531 28.471874 359.4406 29.190624Q358.6281 29.89375 358.6281 31.878124L358.6281 37.55L356.8625 37.55ZM373.03436 37.55L373.03436 23.2375L375.89374 23.2375L379.26874 33.3625Q379.7375 34.784374 379.95624 35.4875Q380.20624 34.70625 380.72186 33.190624L384.14374 23.2375L386.6906 23.2375L386.6906 37.55L384.8781 37.55L384.8781 25.565624L380.70624 37.55L379.0031 37.55L374.8625 25.3625L374.8625 37.55L373.03436 37.55ZM396.64374 36.26875Q395.65936 37.096874 394.7531 37.440624Q393.84686 37.784374 392.8156 37.784374Q391.1125 37.784374 390.1906 36.95625Q389.26874 36.1125 389.26874 34.815624Q389.26874 34.05 389.6125 33.425Q389.97186 32.8 390.53436 32.425Q391.09686 32.034374 391.8 31.83125Q392.3156 31.70625 393.3625 31.565624Q395.4875 31.315624 396.4875 30.971874Q396.5031 30.6125 396.5031 30.503124Q396.5031 29.440624 396.0031 28.9875Q395.33124 28.39375 394.0031 28.39375Q392.7531 28.39375 392.15936 28.83125Q391.58124 29.26875 391.3 30.378124L389.58124 30.14375Q389.8156 29.034374 390.34686 28.3625Q390.8781 27.675 391.89374 27.315624Q392.90936 26.940624 394.2531 26.940624Q395.58124 26.940624 396.40936 27.253124Q397.2375 27.565624 397.6281 28.05Q398.01874 28.51875 398.175 29.2375Q398.26874 29.690624 398.26874 30.8625L398.26874 33.20625Q398.26874 35.659374 398.3781 36.315624Q398.4875 36.95625 398.83124 37.55L396.9875 37.55Q396.72186 37.003124 396.64374 36.26875ZM396.4875 32.346874Q395.53436 32.7375 393.6125 33.003124Q392.53436 33.159374 392.08124 33.3625Q391.64374 33.55 391.39374 33.925Q391.14374 34.3 391.14374 34.76875Q391.14374 35.471874 391.675 35.940624Q392.20624 36.409374 393.2375 36.409374Q394.2531 36.409374 395.03436 35.971874Q395.83124 35.51875 396.20624 34.753124Q396.4875 34.14375 396.4875 32.9875L396.4875 32.346874ZM400.83124 37.55L400.83124 23.2375L402.58124 23.2375L402.58124 37.55L400.83124 37.55ZM411.97186 34.20625L413.78436 34.440624Q413.3625 36.01875 412.1906 36.909374Q411.03436 37.784374 409.22186 37.784374Q406.95624 37.784374 405.6125 36.39375Q404.28436 34.9875 404.28436 32.45625Q404.28436 29.83125 405.6281 28.39375Q406.97186 26.940624 409.1281 26.940624Q411.20624 26.940624 412.51874 28.3625Q413.84686 29.76875 413.84686 32.346874Q413.84686 32.503124 413.83124 32.815624L406.09686 32.815624Q406.1906 34.51875 407.0656 35.425Q407.9406 36.33125 409.2375 36.33125Q410.20624 36.33125 410.8781 35.83125Q411.5656 35.315624 411.97186 34.20625ZM406.1906 31.3625L411.9875 31.3625Q411.8781 30.065624 411.33124 29.409374Q410.4875 28.39375 409.14374 28.39375Q407.9406 28.39375 407.1125 29.20625Q406.28436 30.003124 406.1906 31.3625ZM415.15936 34.45625L416.90936 34.175Q417.05 35.221874 417.72186 35.784374Q418.39374 36.33125 419.59686 36.33125Q420.8 36.33125 421.3781 35.846874Q421.97186 35.346874 421.97186 34.690624Q421.97186 34.096874 421.45624 33.753124Q421.09686 33.51875 419.65936 33.159374Q417.72186 32.659374 416.97186 32.315624Q416.2375 31.95625 415.84686 31.33125Q415.45624 30.690624 415.45624 29.925Q415.45624 29.2375 415.76874 28.64375Q416.09686 28.05 416.64374 27.659374Q417.05 27.3625 417.7531 27.159374Q418.47186 26.940624 419.28436 26.940624Q420.5031 26.940624 421.425 27.3Q422.34686 27.64375 422.78436 28.253124Q423.22186 28.846874 423.39374 29.846874L421.675 30.08125Q421.55 29.284374 420.9875 28.846874Q420.425 28.39375 419.40936 28.39375Q418.1906 28.39375 417.675 28.8Q417.15936 29.190624 417.15936 29.721874Q417.15936 30.065624 417.3781 30.346874Q417.58124 30.628124 418.05 30.815624Q418.3156 30.909374 419.59686 31.253124Q421.47186 31.753124 422.20624 32.08125Q422.9406 32.39375 423.3625 33.003124Q423.78436 33.596874 423.78436 34.503124Q423.78436 35.378124 423.26874 36.159374Q422.7531 36.940624 421.78436 37.3625Q420.8156 37.784374 419.59686 37.784374Q417.58124 37.784374 416.51874 36.940624Q415.45624 36.096874 415.15936 34.45625ZM433.4875 37.55L431.8625 37.55L431.8625 23.2375L433.6125 23.2375L433.6125 28.346874Q434.7375 26.940624 436.45624 26.940624Q437.40936 26.940624 438.26874 27.33125Q439.1281 27.721874 439.675 28.425Q440.22186 29.1125 440.53436 30.096874Q440.84686 31.08125 440.84686 32.20625Q440.84686 34.878124 439.53436 36.33125Q438.22186 37.784374 436.3781 37.784374Q434.53436 37.784374 433.4875 36.253124L433.4875 37.55ZM433.47186 32.284374Q433.47186 34.14375 433.97186 34.9875Q434.8156 36.33125 436.22186 36.33125Q437.3781 36.33125 438.20624 35.33125Q439.05 34.33125 439.05 32.346874Q439.05 30.315624 438.2375 29.3625Q437.4406 28.39375 436.3 28.39375Q435.14374 28.39375 434.3 29.39375Q433.47186 30.39375 433.47186 32.284374ZM442.78436 41.55L442.59686 39.89375Q443.175 40.05 443.59686 40.05Q444.1906 40.05 444.53436 39.846874Q444.89374 39.659374 445.1125 39.315624Q445.28436 39.05 445.65936 38.003124Q445.70624 37.846874 445.8156 37.565624L441.8781 27.175L443.76874 27.175L445.925 33.190624Q446.34686 34.33125 446.675 35.58125Q446.9875 34.378124 447.39374 33.221874L449.6125 27.175L451.3781 27.175L447.425 37.721874Q446.8 39.440624 446.4406 40.08125Q445.97186 40.95625 445.3625 41.346874Q444.76874 41.753124 443.925 41.753124Q443.40936 41.753124 442.78436 41.55ZM459.1281 37.55L459.1281 23.2375L469.4875 23.2375L469.4875 24.925L461.03436 24.925L461.03436 29.3L468.9406 29.3L468.9406 30.9875L461.03436 30.9875L461.03436 35.8625L469.8156 35.8625L469.8156 37.55L459.1281 37.55ZM475.70624 35.971874L475.95624 37.534374Q475.22186 37.690624 474.6281 37.690624Q473.675 37.690624 473.14374 37.39375Q472.6281 37.08125 472.40936 36.596874Q472.1906 36.096874 472.1906 34.51875L472.1906 28.55L470.90936 28.55L470.90936 27.175L472.1906 27.175L472.1906 24.6125L473.9406 23.55L473.9406 27.175L475.70624 27.175L475.70624 28.55L473.9406 28.55L473.9406 34.6125Q473.9406 35.3625 474.03436 35.58125Q474.1281 35.784374 474.33124 35.925Q474.55 36.05 474.9406 36.05Q475.22186 36.05 475.70624 35.971874ZM477.8625 37.55L477.8625 23.2375L479.6281 23.2375L479.6281 28.3625Q480.8625 26.940624 482.7375 26.940624Q483.8781 26.940624 484.72186 27.39375Q485.58124 27.846874 485.9406 28.659374Q486.3156 29.45625 486.3156 30.971874L486.3156 37.55L484.5656 37.55L484.5656 30.971874Q484.5656 29.659374 483.9875 29.065624Q483.40936 28.45625 482.3781 28.45625Q481.59686 28.45625 480.89374 28.8625Q480.20624 29.26875 479.90936 29.971874Q479.6281 30.659374 479.6281 31.878124L479.6281 37.55L477.8625 37.55ZM487.8625 37.55L487.8625 27.175L489.45624 27.175L489.45624 28.659374Q490.59686 26.940624 492.7531 26.940624Q493.6906 26.940624 494.47186 27.284374Q495.26874 27.6125 495.65936 28.159374Q496.05 28.70625 496.20624 29.45625Q496.3 29.95625 496.3 31.175L496.3 37.55L494.53436 37.55L494.53436 31.2375Q494.53436 30.159374 494.33124 29.628124Q494.1281 29.096874 493.59686 28.784374Q493.08124 28.471874 492.3781 28.471874Q491.2531 28.471874 490.4406 29.190624Q489.6281 29.89375 489.6281 31.878124L489.6281 37.55L487.8625 37.55ZM497.8781 25.253124L497.8781 23.2375L499.64374 23.2375L499.64374 25.253124L497.8781 25.253124ZM497.8781 37.55L497.8781 27.175L499.64374 27.175L499.64374 37.55L497.8781 37.55ZM508.64374 33.753124L510.3625 33.971874Q510.08124 35.76875 508.90936 36.784374Q507.7531 37.784374 506.05 37.784374Q503.925 37.784374 502.6281 36.39375Q501.33124 35.003124 501.33124 32.409374Q501.33124 30.721874 501.8781 29.471874Q502.4406 28.20625 503.58124 27.58125Q504.72186 26.940624 506.0656 26.940624Q507.7531 26.940624 508.8156 27.8Q509.89374 28.659374 510.20624 30.221874L508.4875 30.4875Q508.2531 29.440624 507.6281 28.925Q507.0031 28.39375 506.1281 28.39375Q504.8 28.39375 503.97186 29.346874Q503.14374 30.3 503.14374 32.346874Q503.14374 34.440624 503.9406 35.39375Q504.7375 36.33125 506.03436 36.33125Q507.0656 36.33125 507.7531 35.70625Q508.45624 35.065624 508.64374 33.753124ZM511.8781 25.253124L511.8781 23.2375L513.64374 23.2375L513.64374 25.253124L511.8781 25.253124ZM511.8781 37.55L511.8781 27.175L513.64374 27.175L513.64374 37.55L511.8781 37.55ZM519.70624 35.971874L519.95624 37.534374Q519.22186 37.690624 518.6281 37.690624Q517.675 37.690624 517.14374 37.39375Q516.6281 37.08125 516.40936 36.596874Q516.1906 36.096874 516.1906 34.51875L516.1906 28.55L514.90936 28.55L514.90936 27.175L516.1906 27.175L516.1906 24.6125L517.9406 23.55L517.9406 27.175L519.70624 27.175L519.70624 28.55L517.9406 28.55L517.9406 34.6125Q517.9406 35.3625 518.03436 35.58125Q518.1281 35.784374 518.33124 35.925Q518.55 36.05 518.9406 36.05Q519.22186 36.05 519.70624 35.971874ZM521.78436 41.55L521.59686 39.89375Q522.175 40.05 522.59686 40.05Q523.1906 40.05 523.53436 39.846874Q523.89374 39.659374 524.1125 39.315624Q524.28436 39.05 524.65936 38.003124Q524.70624 37.846874 524.8156 37.565624L520.8781 27.175L522.76874 27.175L524.925 33.190624Q525.34686 34.33125 525.675 35.58125Q525.9875 34.378124 526.39374 33.221874L528.6125 27.175L530.3781 27.175L526.425 37.721874Q525.8 39.440624 525.4406 40.08125Q524.97186 40.95625 524.3625 41.346874Q523.76874 41.753124 522.925 41.753124Q522.40936 41.753124 521.78436 41.55Z" fill-rule="nonzero"/></svg>